<svg width="260" height="107" viewBox="0 0 260 107" fill="none" xmlns="http://www.w3.org/2000/svg">
<path d="M27.8403 0.855079C32.4591 0.855079 36.5678 1.79567 40.1665 3.67684C43.7935 5.52951 46.7121 8.06625 48.9224 11.287C51.1609 14.5078 52.4785 18.1419 52.8752 22.1893H39.869C39.4723 20.0516 38.7497 18.1562 37.7012 16.503C36.6528 14.8214 35.2785 13.5103 33.5783 12.5697C31.8782 11.6006 29.838 11.116 27.4577 11.116C24.5958 11.116 22.1305 11.8143 20.062 13.211C17.9935 14.6076 16.4066 16.8593 15.3015 19.9661C14.1964 23.0729 13.6439 27.1773 13.6439 32.2792C13.6439 39.975 14.8623 45.5472 17.2992 48.9961C19.7645 52.4164 23.1506 54.1265 27.4577 54.1265C29.838 54.1265 31.8782 53.585 33.5783 52.5019C35.2785 51.3903 36.6528 49.9366 37.7012 48.141C38.7497 46.3168 39.4723 44.3216 39.869 42.1554H52.8752C52.5069 45.0912 51.7985 47.8987 50.75 50.5779C49.7016 53.2287 48.2139 55.5944 46.2871 57.6751C44.3602 59.7558 41.8808 61.3947 38.8489 62.5918C35.8169 63.7889 32.1474 64.3875 27.8403 64.3875C22.1164 64.3875 17.1717 63.0479 13.0063 60.3686C8.84088 57.6894 5.62473 53.927 3.35783 49.0816C1.11928 44.2361 0 38.5783 0 32.1082C0 25.6096 1.11928 20.0374 3.35783 15.3914C5.59639 10.717 8.79837 7.12566 12.9638 4.61743C17.1292 2.1092 22.088 0.855079 27.8403 0.855079Z" fill="black"/>
<path d="M89.0271 28.0039H79.2511L79.3361 51.5613C79.3361 52.6444 79.4636 53.4567 79.7186 53.9983C80.002 54.5113 80.4271 54.8533 80.9938 55.0244C81.5888 55.1669 82.3397 55.2381 83.2465 55.2381H89.1546V62.9338C88.5879 63.1904 87.6953 63.4326 86.4768 63.6607C85.2867 63.8887 83.6149 64.0027 81.4613 64.0027C77.6076 64.0027 74.6181 63.5039 72.4929 62.5063C70.3961 61.5087 68.9367 60.1121 68.115 58.3164C67.2932 56.5207 66.8824 54.4401 66.8824 52.0743V28.0039H59.7417V19.3248H67.3074L70.4102 5.98556H79.2511V19.282H89.0271V28.0039Z" fill="black"/>
<path d="M98.1954 63.5324V19.3248H110.139V29.7995C110.847 27.5478 111.839 25.5811 113.114 23.8995C114.418 22.1893 115.99 20.8639 117.832 19.9233C119.674 18.9543 121.757 18.4697 124.08 18.4697C124.477 18.4697 124.846 18.4982 125.186 18.5552C125.554 18.5837 125.823 18.6407 125.993 18.7262V30.6118C125.738 30.4978 125.426 30.4266 125.058 30.3981C124.718 30.3696 124.406 30.3411 124.123 30.3126C121.686 30.113 119.603 30.1843 117.875 30.5263C116.146 30.8684 114.744 31.4527 113.667 32.2792C112.59 33.1058 111.811 34.1177 111.329 35.3148C110.847 36.5119 110.607 37.8515 110.607 39.3336V63.5324H98.1954Z" fill="black"/>
<path d="M146.756 64.302C143.526 64.302 140.962 63.9172 139.063 63.1476C137.165 62.378 135.762 61.3662 134.855 60.1121C133.948 58.8295 133.368 57.4186 133.113 55.8794C132.858 54.3118 132.73 52.7299 132.73 51.1337V0H144.886V49.5946C144.886 51.2193 145.226 52.5446 145.906 53.5707C146.615 54.5683 147.932 55.1811 149.859 55.4091L151.942 55.5374V63.2331C151.092 63.5181 150.228 63.7604 149.349 63.9599C148.471 64.188 147.607 64.302 146.756 64.302Z" fill="black"/>
<path d="M200.158 27.8756V36.9822H159.992V27.8756H200.158ZM184.644 52.5874H175.591V12.1849H184.644V52.5874Z" fill="black"/>
<path d="M259.695 63.5324H246.817L236.828 39.7184H224.374V63.5324H212.006V1.71016H237.933C242.835 1.71016 246.845 2.49398 249.962 4.06163C253.079 5.62927 255.374 7.80972 256.848 10.603C258.321 13.3677 259.058 16.56 259.058 20.1799C259.058 23.4292 258.548 26.1797 257.528 28.4314C256.536 30.6546 255.218 32.5073 253.575 33.9894C251.96 35.4715 250.189 36.6829 248.262 37.6235L259.695 63.5324ZM235.723 30.0988C239.038 30.0988 241.659 29.201 243.586 27.4053C245.542 25.6096 246.519 23.3009 246.519 20.4791C246.519 17.6289 245.584 15.3772 243.714 13.724C241.844 12.0709 239.478 11.2443 236.616 11.2443H224.374V30.0988H235.723Z" fill="black"/>
<path d="M106.047 107C103.474 107 101.394 106.49 99.8088 105.471C98.2233 104.425 97.1706 102.974 96.6507 101.117C96.1309 99.2349 96.1309 97.0387 96.6507 94.5287C97.2486 91.7834 98.1453 89.3911 99.341 87.3518C100.563 85.3125 102.174 83.7438 104.176 82.6457C106.177 81.5214 108.633 80.9593 111.544 80.9593C113 80.9593 114.287 81.0639 115.404 81.273C116.548 81.4822 117.601 81.7698 118.562 82.1358L117.978 84.9595C117.016 84.5673 115.976 84.2667 114.859 84.0575C113.741 83.8222 112.532 83.7046 111.233 83.7046C108.035 83.7046 105.514 84.6719 103.669 86.6067C101.849 88.5153 100.576 91.156 99.8478 94.5287C99.406 96.5942 99.315 98.359 99.5749 99.8231C99.8608 101.261 100.589 102.359 101.758 103.117C102.954 103.876 104.682 104.255 106.944 104.255C108.113 104.255 109.322 104.163 110.57 103.98C111.817 103.797 113 103.51 114.118 103.117L113.533 105.98C112.467 106.294 111.311 106.542 110.063 106.725C108.841 106.908 107.503 107 106.047 107Z" fill="black"/>
<path d="M126.427 107C123.386 107 121.267 106.176 120.071 104.529C118.876 102.856 118.603 100.451 119.253 97.3132C119.928 94.2019 121.124 91.8096 122.84 90.1363C124.581 88.463 127.141 87.6263 130.52 87.6263C133.588 87.6263 135.719 88.463 136.915 90.1363C138.136 91.8096 138.409 94.2019 137.733 97.3132C137.084 100.451 135.888 102.856 134.146 104.529C132.405 106.176 129.832 107 126.427 107ZM127.011 104.255C129.221 104.255 130.897 103.706 132.041 102.608C133.211 101.483 134.042 99.7185 134.536 97.3132C135.056 94.8294 135.004 93.0515 134.38 91.9795C133.757 90.9076 132.275 90.3716 129.936 90.3716C127.752 90.3716 126.089 90.9337 124.945 92.058C123.801 93.1561 122.97 94.9078 122.45 97.3132C121.93 99.8231 121.982 101.614 122.606 102.686C123.23 103.732 124.698 104.255 127.011 104.255Z" fill="black"/>
<path d="M144.409 107C143.187 107 142.291 106.634 141.719 105.902C141.147 105.144 141.017 104.046 141.329 102.608L146.086 80.1749H149.283L144.604 102.255C144.448 103.039 144.435 103.575 144.565 103.863C144.721 104.15 145.124 104.294 145.774 104.294C146.345 104.294 146.943 104.216 147.567 104.059L147.06 106.608C146.618 106.765 146.177 106.869 145.735 106.922C145.293 106.974 144.851 107 144.409 107Z" fill="black"/>
<path d="M153.699 107C152.478 107 151.581 106.634 151.009 105.902C150.437 105.144 150.307 104.046 150.619 102.608L155.376 80.1749H158.573L153.894 102.255C153.738 103.039 153.725 103.575 153.855 103.863C154.011 104.15 154.414 104.294 155.064 104.294C155.636 104.294 156.234 104.216 156.857 104.059L156.351 106.608C155.909 106.765 155.467 106.869 155.025 106.922C154.583 106.974 154.141 107 153.699 107Z" fill="black"/>
<path d="M169.048 107C165.851 107 163.577 106.203 162.225 104.608C160.873 103.013 160.549 100.555 161.25 97.2347C161.9 94.2542 163.083 91.9142 164.798 90.2147C166.54 88.4891 168.983 87.6263 172.128 87.6263C173.948 87.6263 175.377 87.9662 176.417 88.646C177.483 89.2996 178.185 90.2147 178.522 91.3913C178.86 92.5417 178.873 93.8489 178.561 95.3131L177.821 98.8035H164.136C163.954 100.215 163.993 101.326 164.253 102.137C164.538 102.947 165.149 103.536 166.085 103.902C167.047 104.242 168.424 104.412 170.218 104.412C172.115 104.412 173.935 104.085 175.676 103.431L175.13 105.941C174.247 106.281 173.285 106.542 172.245 106.725C171.206 106.908 170.14 107 169.048 107ZM164.603 96.4896H175.442L175.793 94.9601C176.105 93.4437 175.988 92.2802 175.442 91.4697C174.896 90.6331 173.636 90.2147 171.66 90.2147C169.555 90.2147 167.956 90.7376 166.865 91.7834C165.799 92.8293 165.045 94.398 164.603 96.4896Z" fill="black"/>
<path d="M188.914 107C185.899 107 183.742 106.163 182.442 104.49C181.142 102.791 180.817 100.398 181.467 97.3132C182.143 94.045 183.482 91.6135 185.483 90.0186C187.485 88.4238 190.084 87.6263 193.281 87.6263C194.503 87.6263 195.49 87.7179 196.244 87.9009C197.024 88.0577 197.765 88.3192 198.466 88.6852L197.921 91.2344C197.297 90.8945 196.608 90.6461 195.854 90.4893C195.1 90.3062 194.256 90.2147 193.32 90.2147C191.033 90.2147 189.148 90.7638 187.667 91.8619C186.211 92.9338 185.21 94.7509 184.664 97.3132C184.145 99.7708 184.261 101.575 185.015 102.725C185.795 103.849 187.524 104.412 190.201 104.412C191.994 104.412 193.723 104.072 195.386 103.392L194.84 105.98C193.957 106.32 193.034 106.569 192.072 106.725C191.111 106.908 190.058 107 188.914 107Z" fill="black"/>
<path d="M204.974 107C203.259 107 202.024 106.516 201.27 105.549C200.516 104.555 200.322 103.183 200.685 101.431L202.947 90.5677H200.14L200.685 88.0185H203.493L204.467 83.43L207.859 82.4496L206.69 88.0185H211.797L211.056 90.5677H206.144L203.883 101.274C203.649 102.398 203.701 103.209 204.038 103.706C204.402 104.176 205.156 104.412 206.3 104.412C206.664 104.412 207.08 104.385 207.547 104.333C208.015 104.255 208.483 104.15 208.951 104.019L208.405 106.451C207.366 106.817 206.222 107 204.974 107Z" fill="black"/>
<path d="M217.957 83.6653L218.581 80.724H222.129L221.505 83.6653H217.957ZM213.434 106.608L216.787 90.5677H213.941L214.799 88.0185H220.53L216.631 106.608H213.434Z" fill="black"/>
<path d="M227.892 106.608L224.539 88.0185H227.736L230.192 103.627L239.198 88.0185H242.629L231.479 106.608H227.892Z" fill="black"/>
<path d="M250.262 107C247.065 107 244.791 106.203 243.439 104.608C242.088 103.013 241.763 100.555 242.464 97.2347C243.114 94.2542 244.297 91.9142 246.012 90.2147C247.754 88.4891 250.197 87.6263 253.342 87.6263C255.162 87.6263 256.591 87.9662 257.631 88.646C258.697 89.2996 259.399 90.2147 259.736 91.3913C260.074 92.5417 260.087 93.8489 259.775 95.3131L259.035 98.8035H245.35C245.168 100.215 245.207 101.326 245.467 102.137C245.752 102.947 246.363 103.536 247.299 103.902C248.261 104.242 249.638 104.412 251.432 104.412C253.329 104.412 255.149 104.085 256.89 103.431L256.344 105.941C255.461 106.281 254.499 106.542 253.459 106.725C252.42 106.908 251.354 107 250.262 107ZM245.817 96.4896H256.656L257.007 94.9601C257.319 93.4437 257.202 92.2802 256.656 91.4697C256.11 90.6331 254.85 90.2147 252.874 90.2147C250.769 90.2147 249.17 90.7376 248.079 91.7834C247.013 92.8293 246.259 94.398 245.817 96.4896Z" fill="black"/>
</svg>
