<svg width="280" height="228" viewBox="0 0 280 228" fill="none" xmlns="http://www.w3.org/2000/svg">
<path d="M5.525 84V41.84H15.215L16.235 49.745C17.765 47.025 19.8333 44.8717 22.44 43.285C25.1033 41.6417 28.22 40.82 31.79 40.82V52.295H28.73C26.35 52.295 24.225 52.6633 22.355 53.4C20.485 54.1367 19.0117 55.4117 17.935 57.225C16.915 59.0383 16.405 61.56 16.405 64.79V84H5.525ZM70.4391 85.02C66.1891 85.02 62.4208 84.1133 59.1341 82.3C55.8474 80.4867 53.2691 77.9367 51.3991 74.65C49.5291 71.3633 48.5941 67.5667 48.5941 63.26C48.5941 58.8967 49.5008 55.015 51.3141 51.615C53.1841 48.215 55.7341 45.58 58.9641 43.71C62.2508 41.7833 66.1041 40.82 70.5241 40.82C74.6608 40.82 78.3158 41.7267 81.4891 43.54C84.6624 45.3533 87.1274 47.8467 88.8841 51.02C90.6974 54.1367 91.6041 57.6217 91.6041 61.475C91.6041 62.0983 91.5758 62.75 91.5191 63.43C91.5191 64.11 91.4908 64.8183 91.4341 65.555H59.3891C59.6158 68.8417 60.7491 71.42 62.7891 73.29C64.8858 75.16 67.4074 76.095 70.3541 76.095C72.5641 76.095 74.4058 75.6133 75.8791 74.65C77.4091 73.63 78.5424 72.3267 79.2791 70.74H90.3291C89.5358 73.4033 88.2041 75.84 86.3341 78.05C84.5208 80.2033 82.2541 81.9033 79.5341 83.15C76.8708 84.3967 73.8391 85.02 70.4391 85.02ZM70.5241 49.66C67.8608 49.66 65.5091 50.425 63.4691 51.955C61.4291 53.4283 60.1258 55.695 59.5591 58.755H80.5541C80.3841 55.9783 79.3641 53.7683 77.4941 52.125C75.6241 50.4817 73.3008 49.66 70.5241 49.66ZM129.167 71.42C127.127 71.42 125.228 71.1933 123.472 70.74L120.327 73.885C121.29 74.395 122.593 74.82 124.237 75.16C125.88 75.5 128.543 75.84 132.227 76.18C137.837 76.69 141.917 78.0217 144.467 80.175C147.017 82.3283 148.292 85.3033 148.292 89.1C148.292 91.5933 147.612 93.945 146.252 96.155C144.892 98.4217 142.795 100.235 139.962 101.595C137.128 103.012 133.502 103.72 129.082 103.72C123.075 103.72 118.23 102.587 114.547 100.32C110.863 98.11 109.022 94.7667 109.022 90.29C109.022 86.4933 110.863 83.2067 114.547 80.43C113.413 79.92 112.422 79.3817 111.572 78.815C110.778 78.2483 110.07 77.6533 109.447 77.03V75.075L116.842 67.255C113.555 64.365 111.912 60.6533 111.912 56.12C111.912 53.2867 112.592 50.7083 113.952 48.385C115.368 46.0617 117.352 44.22 119.902 42.86C122.452 41.5 125.54 40.82 129.167 40.82C131.547 40.82 133.757 41.16 135.797 41.84H151.777V48.47L144.552 48.98C145.685 51.1333 146.252 53.5133 146.252 56.12C146.252 58.9533 145.572 61.5317 144.212 63.855C142.852 66.1783 140.868 68.02 138.262 69.38C135.712 70.74 132.68 71.42 129.167 71.42ZM129.167 63.09C131.377 63.09 133.19 62.495 134.607 61.305C136.08 60.115 136.817 58.415 136.817 56.205C136.817 53.995 136.08 52.295 134.607 51.105C133.19 49.915 131.377 49.32 129.167 49.32C126.843 49.32 124.973 49.915 123.557 51.105C122.14 52.295 121.432 53.995 121.432 56.205C121.432 58.415 122.14 60.115 123.557 61.305C124.973 62.495 126.843 63.09 129.167 63.09ZM118.967 89.185C118.967 91.2817 119.93 92.84 121.857 93.86C123.84 94.9367 126.248 95.475 129.082 95.475C131.802 95.475 134.012 94.9083 135.712 93.775C137.412 92.6983 138.262 91.225 138.262 89.355C138.262 87.825 137.695 86.55 136.562 85.53C135.485 84.51 133.303 83.8867 130.017 83.66C127.693 83.49 125.54 83.235 123.557 82.895C121.913 83.8017 120.723 84.7933 119.987 85.87C119.307 86.9467 118.967 88.0517 118.967 89.185ZM190.01 85.02C185.76 85.02 181.992 84.1133 178.705 82.3C175.419 80.4867 172.84 77.9367 170.97 74.65C169.1 71.3633 168.165 67.5667 168.165 63.26C168.165 58.8967 169.072 55.015 170.885 51.615C172.755 48.215 175.305 45.58 178.535 43.71C181.822 41.7833 185.675 40.82 190.095 40.82C194.232 40.82 197.887 41.7267 201.06 43.54C204.234 45.3533 206.699 47.8467 208.455 51.02C210.269 54.1367 211.175 57.6217 211.175 61.475C211.175 62.0983 211.147 62.75 211.09 63.43C211.09 64.11 211.062 64.8183 211.005 65.555H178.96C179.187 68.8417 180.32 71.42 182.36 73.29C184.457 75.16 186.979 76.095 189.925 76.095C192.135 76.095 193.977 75.6133 195.45 74.65C196.98 73.63 198.114 72.3267 198.85 70.74H209.9C209.107 73.4033 207.775 75.84 205.905 78.05C204.092 80.2033 201.825 81.9033 199.105 83.15C196.442 84.3967 193.41 85.02 190.01 85.02ZM190.095 49.66C187.432 49.66 185.08 50.425 183.04 51.955C181 53.4283 179.697 55.695 179.13 58.755H200.125C199.955 55.9783 198.935 53.7683 197.065 52.125C195.195 50.4817 192.872 49.66 190.095 49.66ZM231.801 84V41.84H241.406L242.256 48.98C243.559 46.4867 245.429 44.5033 247.866 43.03C250.359 41.5567 253.278 40.82 256.621 40.82C261.834 40.82 265.886 42.4633 268.776 45.75C271.666 49.0367 273.111 53.8533 273.111 60.2V84H262.231V61.22C262.231 57.5933 261.494 54.8167 260.021 52.89C258.548 50.9633 256.253 50 253.136 50C250.076 50 247.554 51.0767 245.571 53.23C243.644 55.3833 242.681 58.3867 242.681 62.24V84H231.801Z" fill="#0E3EA4"/>
<path d="M5.525 84H4.525C4.525 84.5523 4.97272 85 5.525 85V84ZM5.525 41.84V40.84C4.97272 40.84 4.525 41.2877 4.525 41.84H5.525ZM15.215 41.84L16.2068 41.712C16.1424 41.2133 15.7178 40.84 15.215 40.84V41.84ZM16.235 49.745L15.2432 49.873C15.2984 50.3004 15.6211 50.6444 16.0441 50.7266C16.4672 50.8089 16.8953 50.6109 17.1066 50.2353L16.235 49.745ZM22.44 43.285L22.96 44.1392L22.9651 44.136L22.44 43.285ZM31.79 40.82H32.79C32.79 40.2677 32.3423 39.82 31.79 39.82V40.82ZM31.79 52.295V53.295C32.3423 53.295 32.79 52.8473 32.79 52.295H31.79ZM22.355 53.4L22.7215 54.3304L22.7215 54.3304L22.355 53.4ZM17.935 57.225L17.0751 56.7145C17.0712 56.7212 17.0673 56.7279 17.0634 56.7347L17.935 57.225ZM16.405 84V85C16.9573 85 17.405 84.5523 17.405 84H16.405ZM6.525 84V41.84H4.525V84H6.525ZM5.525 42.84H15.215V40.84H5.525V42.84ZM14.2232 41.968L15.2432 49.873L17.2268 49.617L16.2068 41.712L14.2232 41.968ZM17.1066 50.2353C18.5545 47.6612 20.5032 45.6346 22.9599 44.1392L21.9201 42.4308C19.1635 44.1087 16.9755 46.3888 15.3634 49.2547L17.1066 50.2353ZM22.9651 44.136C25.4493 42.6032 28.3788 41.82 31.79 41.82V39.82C28.0612 39.82 24.7573 40.6801 21.9149 42.434L22.9651 44.136ZM30.79 40.82V52.295H32.79V40.82H30.79ZM31.79 51.295H28.73V53.295H31.79V51.295ZM28.73 51.295C26.2472 51.295 23.9946 51.6793 21.9885 52.4696L22.7215 54.3304C24.4554 53.6474 26.4528 53.295 28.73 53.295V51.295ZM21.9885 52.4696C19.9013 53.2918 18.2591 54.7204 17.0751 56.7145L18.7949 57.7355C19.7642 56.1029 21.0687 54.9815 22.7215 54.3304L21.9885 52.4696ZM17.0634 56.7347C15.9251 58.7584 15.405 61.4747 15.405 64.79H17.405C17.405 61.6453 17.9049 59.3183 18.8066 57.7153L17.0634 56.7347ZM15.405 64.79V84H17.405V64.79H15.405ZM16.405 83H5.525V85H16.405V83ZM59.1341 82.3L59.6172 81.4244L59.6172 81.4244L59.1341 82.3ZM51.3141 51.615L50.4378 51.133L50.4317 51.1444L51.3141 51.615ZM58.9641 43.71L59.4651 44.5754L59.4698 44.5727L58.9641 43.71ZM81.4891 43.54L80.993 44.4082L80.993 44.4082L81.4891 43.54ZM88.8841 51.02L88.0092 51.5043C88.0127 51.5105 88.0162 51.5167 88.0198 51.5229L88.8841 51.02ZM91.5191 63.43L90.5226 63.347C90.5203 63.3746 90.5191 63.4023 90.5191 63.43H91.5191ZM91.4341 65.555V66.555C91.9566 66.555 92.3911 66.1527 92.4312 65.6317L91.4341 65.555ZM59.3891 65.555V64.555C59.1119 64.555 58.8472 64.67 58.6581 64.8727C58.4689 65.0753 58.3724 65.3473 58.3915 65.6238L59.3891 65.555ZM62.7891 73.29L62.1133 74.0272L62.1235 74.0363L62.7891 73.29ZM75.8791 74.65L76.4264 75.487L76.4338 75.482L75.8791 74.65ZM79.2791 70.74V69.74C78.8899 69.74 78.536 69.9659 78.3721 70.3189L79.2791 70.74ZM90.3291 70.74L91.2875 71.0255C91.3776 70.7229 91.3195 70.3954 91.1308 70.1423C90.9421 69.8891 90.6449 69.74 90.3291 69.74V70.74ZM86.3341 78.05L85.5707 77.4041L85.5692 77.4059L86.3341 78.05ZM79.5341 83.15L79.1174 82.2409L79.1102 82.2443L79.5341 83.15ZM63.4691 51.955L64.0546 52.7657C64.0595 52.7622 64.0643 52.7586 64.0691 52.755L63.4691 51.955ZM59.5591 58.755L58.5758 58.5729C58.5217 58.865 58.6003 59.1661 58.7903 59.3945C58.9803 59.6229 59.262 59.755 59.5591 59.755V58.755ZM80.5541 58.755V59.755C80.8299 59.755 81.0935 59.6411 81.2825 59.4402C81.4715 59.2392 81.5691 58.9692 81.5522 58.6939L80.5541 58.755ZM77.4941 52.125L78.1542 51.3738L78.1542 51.3738L77.4941 52.125ZM70.4391 84.02C66.3354 84.02 62.7373 83.1458 59.6172 81.4244L58.651 83.1756C62.1043 85.0808 66.0428 86.02 70.4391 86.02V84.02ZM59.6172 81.4244C56.4931 79.7008 54.0478 77.2832 52.2683 74.1555L50.5299 75.1445C52.4904 78.5901 55.2018 81.2725 58.651 83.1756L59.6172 81.4244ZM52.2683 74.1555C50.4953 71.0394 49.5941 67.4177 49.5941 63.26H47.5941C47.5941 67.7156 48.5629 71.6872 50.5299 75.1445L52.2683 74.1555ZM49.5941 63.26C49.5941 59.0388 50.4701 55.3225 52.1965 52.0856L50.4317 51.1444C48.5314 54.7075 47.5941 58.7545 47.5941 63.26H49.5941ZM52.1903 52.0969C53.9762 48.8499 56.3992 46.3504 59.4651 44.5754L58.4631 42.8446C55.069 44.8096 52.392 47.5801 50.4379 51.1331L52.1903 52.0969ZM59.4698 44.5727C62.58 42.7495 66.253 41.82 70.5241 41.82V39.82C65.9552 39.82 61.9215 40.8172 58.4584 42.8473L59.4698 44.5727ZM70.5241 41.82C74.5101 41.82 77.9898 42.6921 80.993 44.4082L81.9852 42.6718C78.6418 40.7612 74.8114 39.82 70.5241 39.82V41.82ZM80.993 44.4082C84.0086 46.1314 86.342 48.4925 88.0092 51.5043L89.759 50.5357C87.9129 47.2008 85.3163 44.5752 81.9852 42.6718L80.993 44.4082ZM88.0198 51.5229C89.7381 54.4763 90.6041 57.7858 90.6041 61.475H92.6041C92.6041 57.4576 91.6567 53.797 89.7484 50.5171L88.0198 51.5229ZM90.6041 61.475C90.6041 62.0682 90.5771 62.692 90.5226 63.347L92.5156 63.513C92.5744 62.808 92.6041 62.1285 92.6041 61.475H90.6041ZM90.5191 63.43C90.5191 64.0823 90.4919 64.765 90.437 65.4783L92.4312 65.6317C92.4896 64.8717 92.5191 64.1377 92.5191 63.43H90.5191ZM91.4341 64.555H59.3891V66.555H91.4341V64.555ZM58.3915 65.6238C58.6322 69.1144 59.8492 71.9517 62.1134 74.0272L63.4648 72.5528C61.649 70.8883 60.5993 68.5689 60.3867 65.4862L58.3915 65.6238ZM62.1235 74.0363C64.4129 76.0782 67.1751 77.095 70.3541 77.095V75.095C67.6398 75.095 65.3586 74.2418 63.4547 72.5437L62.1235 74.0363ZM70.3541 77.095C72.7089 77.095 74.7533 76.5809 76.4264 75.487L75.3319 73.813C74.0583 74.6458 72.4193 75.095 70.3541 75.095V77.095ZM76.4338 75.482C78.1086 74.3655 79.368 72.9232 80.1861 71.1611L78.3721 70.3189C77.7169 71.7301 76.7096 72.8945 75.3244 73.8179L76.4338 75.482ZM79.2791 71.74H90.3291V69.74H79.2791V71.74ZM89.3707 70.4545C88.6184 72.98 87.3553 75.295 85.5707 77.4041L87.0975 78.6959C89.0529 76.385 90.4531 73.8267 91.2875 71.0255L89.3707 70.4545ZM85.5692 77.4059C83.8569 79.4392 81.7118 81.0518 79.1174 82.2409L79.9508 84.0591C82.7964 82.7548 85.1847 80.9674 87.099 78.6941L85.5692 77.4059ZM79.1102 82.2443C76.5987 83.4199 73.7154 84.02 70.4391 84.02V86.02C73.9628 86.02 77.1428 85.3735 79.958 84.0557L79.1102 82.2443ZM70.5241 48.66C67.6547 48.66 65.0903 49.4891 62.8691 51.155L64.0691 52.755C65.9279 51.3609 68.0668 50.66 70.5241 50.66V48.66ZM62.8836 51.1443C60.5884 52.802 59.1776 55.323 58.5758 58.5729L60.5424 58.9371C61.0739 56.067 62.2698 54.0547 64.0546 52.7657L62.8836 51.1443ZM59.5591 59.755H80.5541V57.755H59.5591V59.755ZM81.5522 58.6939C81.368 55.6856 80.2486 53.2144 78.1542 51.3738L76.834 52.8762C78.4796 54.3223 79.4002 56.2711 79.556 58.8161L81.5522 58.6939ZM78.1542 51.3738C76.0803 49.5513 73.5136 48.66 70.5241 48.66V50.66C73.0879 50.66 75.1679 51.412 76.834 52.8762L78.1542 51.3738ZM123.472 70.74L123.722 69.7717C123.379 69.6833 123.015 69.7826 122.765 70.0329L123.472 70.74ZM120.327 73.885L119.62 73.1779C119.395 73.4023 119.291 73.7199 119.338 74.0337C119.385 74.3475 119.578 74.6203 119.859 74.7688L120.327 73.885ZM124.237 75.16L124.034 76.1393L124.034 76.1393L124.237 75.16ZM132.227 76.18L132.135 77.1758L132.136 77.1759L132.227 76.18ZM144.467 80.175L143.822 80.939L144.467 80.175ZM146.252 96.155L145.4 95.6309L145.394 95.6405L146.252 96.155ZM139.962 101.595L139.529 100.693C139.524 100.696 139.519 100.698 139.515 100.701L139.962 101.595ZM114.547 100.32L115.071 99.4683L115.061 99.4625L114.547 100.32ZM114.547 80.43L115.149 81.2285C115.431 81.0158 115.58 80.6699 115.541 80.3187C115.501 79.9675 115.279 79.6631 114.957 79.5181L114.547 80.43ZM111.572 78.815L110.991 79.6287C110.999 79.635 111.008 79.6411 111.017 79.647L111.572 78.815ZM109.447 77.03H108.447C108.447 77.2952 108.552 77.5496 108.74 77.7371L109.447 77.03ZM109.447 75.075L108.72 74.3879C108.545 74.5736 108.447 74.8194 108.447 75.075H109.447ZM116.842 67.255L117.568 67.9421C117.755 67.7448 117.853 67.4802 117.841 67.209C117.828 66.9378 117.706 66.6833 117.502 66.504L116.842 67.255ZM113.952 48.385L113.098 47.8644C113.095 47.8695 113.092 47.8746 113.089 47.8798L113.952 48.385ZM119.902 42.86L119.431 41.9776L119.431 41.9776L119.902 42.86ZM135.797 41.84L135.481 42.7887C135.583 42.8227 135.689 42.84 135.797 42.84V41.84ZM151.777 41.84H152.777C152.777 41.2877 152.329 40.84 151.777 40.84V41.84ZM151.777 48.47L151.847 49.4675C152.371 49.4306 152.777 48.995 152.777 48.47H151.777ZM144.552 48.98L144.481 47.9825C144.144 48.0063 143.842 48.1985 143.678 48.4936C143.514 48.7888 143.51 49.1469 143.667 49.4457L144.552 48.98ZM144.212 63.855L143.349 63.3498L144.212 63.855ZM138.262 69.38L137.799 68.4934L137.791 68.4976L138.262 69.38ZM134.607 61.305L133.978 60.5271C133.973 60.5311 133.969 60.5352 133.964 60.5393L134.607 61.305ZM134.607 51.105L133.964 51.8707C133.969 51.8748 133.973 51.8789 133.978 51.8829L134.607 51.105ZM123.557 51.105L122.914 50.3393L122.914 50.3393L123.557 51.105ZM123.557 61.305L124.2 60.5393L124.2 60.5393L123.557 61.305ZM121.857 93.86L122.334 92.9811L122.325 92.9762L121.857 93.86ZM135.712 93.775L135.177 92.9302C135.17 92.9344 135.164 92.9386 135.157 92.9429L135.712 93.775ZM136.562 85.53L135.874 86.256C135.88 86.2618 135.886 86.2676 135.893 86.2733L136.562 85.53ZM130.017 83.66L129.944 84.6573L129.948 84.6576L130.017 83.66ZM123.557 82.895L123.726 81.9094C123.502 81.8711 123.272 81.9099 123.074 82.0194L123.557 82.895ZM119.987 85.87L119.161 85.3053C119.155 85.3154 119.148 85.3257 119.141 85.336L119.987 85.87ZM129.167 70.42C127.201 70.42 125.387 70.2016 123.722 69.7717L123.222 71.7083C125.07 72.1851 127.053 72.42 129.167 72.42V70.42ZM122.765 70.0329L119.62 73.1779L121.034 74.5921L124.179 71.4471L122.765 70.0329ZM119.859 74.7688C120.938 75.34 122.342 75.7893 124.034 76.1393L124.439 74.1807C122.844 73.8507 121.642 73.45 120.795 73.0012L119.859 74.7688ZM124.034 76.1393C125.736 76.4915 128.448 76.8354 132.135 77.1758L132.319 75.1842C128.639 74.8446 126.024 74.5085 124.439 74.1807L124.034 76.1393ZM132.136 77.1759C137.668 77.6788 141.503 78.9813 143.822 80.939L145.112 79.411C142.33 77.062 138.005 75.7012 132.317 75.1841L132.136 77.1759ZM143.822 80.939C146.114 82.8749 147.292 85.5525 147.292 89.1H149.292C149.292 85.0542 147.919 81.7817 145.112 79.411L143.822 80.939ZM147.292 89.1C147.292 91.4005 146.667 93.5718 145.4 95.6309L147.103 96.6791C148.556 94.3182 149.292 91.7861 149.292 89.1H147.292ZM145.394 95.6405C144.153 97.7098 142.22 99.4019 139.529 100.693L140.395 102.497C143.37 101.068 145.631 99.1335 147.109 96.6695L145.394 95.6405ZM139.515 100.701C136.864 102.026 133.404 102.72 129.082 102.72V104.72C133.599 104.72 137.393 103.997 140.409 102.489L139.515 100.701ZM129.082 102.72C123.191 102.72 118.547 101.607 115.071 99.4683L114.023 101.172C117.914 103.566 122.959 104.72 129.082 104.72V102.72ZM115.061 99.4625C111.694 97.4424 110.022 94.4335 110.022 90.29H108.022C108.022 95.0998 110.033 98.7776 114.032 101.177L115.061 99.4625ZM110.022 90.29C110.022 86.8757 111.656 83.8617 115.149 81.2285L113.945 79.6315C110.071 82.5517 108.022 86.111 108.022 90.29H110.022ZM114.957 79.5181C113.864 79.026 112.922 78.5134 112.126 77.9829L111.017 79.647C111.921 80.25 112.963 80.814 114.136 81.3419L114.957 79.5181ZM112.153 78.0013C111.4 77.4633 110.734 76.9034 110.154 76.3229L108.74 77.7371C109.406 78.4032 110.157 79.0334 110.991 79.6287L112.153 78.0013ZM110.447 77.03V75.075H108.447V77.03H110.447ZM110.173 75.7621L117.568 67.9421L116.115 66.5679L108.72 74.3879L110.173 75.7621ZM117.502 66.504C114.44 63.8115 112.912 60.3776 112.912 56.12H110.912C110.912 60.9291 112.67 64.9185 116.181 68.006L117.502 66.504ZM112.912 56.12C112.912 53.4545 113.549 51.0521 114.815 48.8902L113.089 47.8798C111.634 50.3646 110.912 53.1188 110.912 56.12H112.912ZM114.806 48.9056C116.123 46.7445 117.97 45.0236 120.372 43.7424L119.431 41.9776C116.734 43.4164 114.614 45.3788 113.098 47.8644L114.806 48.9056ZM120.372 43.7424C122.745 42.4768 125.663 41.82 129.167 41.82V39.82C125.417 39.82 122.158 40.5232 119.431 41.9776L120.372 43.7424ZM129.167 41.82C131.451 41.82 133.553 42.1461 135.481 42.7887L136.113 40.8913C133.961 40.1739 131.643 39.82 129.167 39.82V41.82ZM135.797 42.84H151.777V40.84H135.797V42.84ZM150.777 41.84V48.47H152.777V41.84H150.777ZM151.706 47.4725L144.481 47.9825L144.622 49.9775L151.847 49.4675L151.706 47.4725ZM143.667 49.4457C144.719 51.4453 145.252 53.6638 145.252 56.12H147.252C147.252 53.3629 146.651 50.8213 145.437 48.5143L143.667 49.4457ZM145.252 56.12C145.252 58.7855 144.614 61.1879 143.349 63.3498L145.075 64.3602C146.529 61.8754 147.252 59.1212 147.252 56.12H145.252ZM143.349 63.3498C142.092 65.4961 140.255 67.2121 137.799 68.4934L138.724 70.2666C141.482 68.8279 143.611 66.8606 145.075 64.3602L143.349 63.3498ZM137.791 68.4976C135.414 69.7654 132.551 70.42 129.167 70.42V72.42C132.809 72.42 136.009 71.7146 138.732 70.2624L137.791 68.4976ZM129.167 64.09C131.564 64.09 133.62 63.4402 135.25 62.0707L133.964 60.5393C132.761 61.5498 131.189 62.09 129.167 62.09V64.09ZM135.235 62.0829C136.984 60.6703 137.817 58.6607 137.817 56.205H135.817C135.817 58.1693 135.176 59.5597 133.978 60.5271L135.235 62.0829ZM137.817 56.205C137.817 53.7493 136.984 51.7397 135.235 50.3271L133.978 51.8829C135.176 52.8503 135.817 54.2407 135.817 56.205H137.817ZM135.25 50.3393C133.62 48.9698 131.564 48.32 129.167 48.32V50.32C131.189 50.32 132.761 50.8602 133.964 51.8707L135.25 50.3393ZM129.167 48.32C126.67 48.32 124.553 48.9624 122.914 50.3393L124.2 51.8707C125.394 50.8676 127.017 50.32 129.167 50.32V48.32ZM122.914 50.3393C121.226 51.7566 120.432 53.763 120.432 56.205H122.432C122.432 54.227 123.054 52.8334 124.2 51.8707L122.914 50.3393ZM120.432 56.205C120.432 58.647 121.226 60.6534 122.914 62.0707L124.2 60.5393C123.054 59.5766 122.432 58.183 122.432 56.205H120.432ZM122.914 62.0707C124.553 63.4476 126.67 64.09 129.167 64.09V62.09C127.017 62.09 125.394 61.5424 124.2 60.5393L122.914 62.0707ZM117.967 89.185C117.967 90.3917 118.246 91.4931 118.839 92.4521C119.43 93.4089 120.298 94.1665 121.389 94.7438L122.325 92.9762C121.488 92.5335 120.912 92.0019 120.54 91.4004C120.169 90.8011 119.967 90.075 119.967 89.185H117.967ZM121.38 94.7389C123.542 95.9128 126.124 96.475 129.082 96.475V94.475C126.373 94.475 124.138 93.9605 122.334 92.9811L121.38 94.7389ZM129.082 96.475C131.935 96.475 134.356 95.8808 136.266 94.6071L135.157 92.9429C133.668 93.9359 131.669 94.475 129.082 94.475V96.475ZM136.247 94.6198C138.21 93.3765 139.262 91.5978 139.262 89.355H137.262C137.262 90.8522 136.614 92.0201 135.177 92.9302L136.247 94.6198ZM139.262 89.355C139.262 87.5426 138.576 85.9971 137.231 84.7867L135.893 86.2733C136.815 87.1029 137.262 88.1074 137.262 89.355H139.262ZM137.25 84.804C136.549 84.1402 135.564 83.6705 134.393 83.336C133.212 82.9986 131.77 82.7786 130.086 82.6624L129.948 84.6576C131.55 84.7681 132.842 84.973 133.843 85.259C134.854 85.5478 135.498 85.8998 135.874 86.256L137.25 84.804ZM130.09 82.6627C127.794 82.4947 125.673 82.2432 123.726 81.9094L123.388 83.8806C125.407 84.2268 127.593 84.4853 129.944 84.6573L130.09 82.6627ZM123.074 82.0194C121.349 82.9707 120.016 84.0557 119.161 85.3053L120.812 86.4347C121.43 85.5309 122.477 84.6326 124.04 83.7706L123.074 82.0194ZM119.141 85.336C118.373 86.5522 117.967 87.8399 117.967 89.185H119.967C119.967 88.2634 120.24 87.3412 120.832 86.404L119.141 85.336ZM178.705 82.3L179.188 81.4244L179.188 81.4244L178.705 82.3ZM170.885 51.615L170.009 51.133L170.003 51.1444L170.885 51.615ZM178.535 43.71L179.036 44.5754L179.041 44.5727L178.535 43.71ZM201.06 43.54L200.564 44.4082L200.564 44.4082L201.06 43.54ZM208.455 51.02L207.58 51.5043C207.584 51.5105 207.587 51.5167 207.591 51.5229L208.455 51.02ZM211.09 63.43L210.094 63.347C210.091 63.3746 210.09 63.4023 210.09 63.43H211.09ZM211.005 65.555V66.555C211.528 66.555 211.962 66.1527 212.002 65.6317L211.005 65.555ZM178.96 65.555V64.555C178.683 64.555 178.418 64.67 178.229 64.8727C178.04 65.0753 177.943 65.3473 177.963 65.6238L178.96 65.555ZM182.36 73.29L181.684 74.0272L181.695 74.0363L182.36 73.29ZM195.45 74.65L195.997 75.487L196.005 75.482L195.45 74.65ZM198.85 70.74V69.74C198.461 69.74 198.107 69.9659 197.943 70.3189L198.85 70.74ZM209.9 70.74L210.859 71.0255C210.949 70.7229 210.891 70.3954 210.702 70.1423C210.513 69.8891 210.216 69.74 209.9 69.74V70.74ZM205.905 78.05L205.142 77.4041L205.14 77.4059L205.905 78.05ZM199.105 83.15L198.689 82.2409L198.681 82.2443L199.105 83.15ZM183.04 51.955L183.626 52.7657C183.631 52.7622 183.635 52.7586 183.64 52.755L183.04 51.955ZM179.13 58.755L178.147 58.5729C178.093 58.865 178.171 59.1661 178.361 59.3945C178.551 59.6229 178.833 59.755 179.13 59.755V58.755ZM200.125 58.755V59.755C200.401 59.755 200.665 59.6411 200.854 59.4402C201.043 59.2392 201.14 58.9692 201.123 58.6939L200.125 58.755ZM197.065 52.125L197.725 51.3738L197.725 51.3738L197.065 52.125ZM190.01 84.02C185.906 84.02 182.308 83.1458 179.188 81.4244L178.222 83.1756C181.675 85.0808 185.614 86.02 190.01 86.02V84.02ZM179.188 81.4244C176.064 79.7008 173.619 77.2832 171.839 74.1555L170.101 75.1445C172.061 78.5901 174.773 81.2725 178.222 83.1756L179.188 81.4244ZM171.839 74.1555C170.066 71.0394 169.165 67.4177 169.165 63.26H167.165C167.165 67.7156 168.134 71.6872 170.101 75.1445L171.839 74.1555ZM169.165 63.26C169.165 59.0388 170.041 55.3225 171.768 52.0856L170.003 51.1444C168.103 54.7075 167.165 58.7545 167.165 63.26H169.165ZM171.761 52.0969C173.547 48.8499 175.97 46.3504 179.036 44.5754L178.034 42.8446C174.64 44.8096 171.963 47.5801 170.009 51.1331L171.761 52.0969ZM179.041 44.5727C182.151 42.7495 185.824 41.82 190.095 41.82V39.82C185.526 39.82 181.493 40.8172 178.029 42.8473L179.041 44.5727ZM190.095 41.82C194.081 41.82 197.561 42.6921 200.564 44.4082L201.556 42.6718C198.213 40.7612 194.383 39.82 190.095 39.82V41.82ZM200.564 44.4082C203.58 46.1314 205.913 48.4925 207.58 51.5043L209.33 50.5357C207.484 47.2008 204.887 44.5752 201.556 42.6718L200.564 44.4082ZM207.591 51.5229C209.309 54.4763 210.175 57.7858 210.175 61.475H212.175C212.175 57.4576 211.228 53.797 209.32 50.5171L207.591 51.5229ZM210.175 61.475C210.175 62.0682 210.148 62.692 210.094 63.347L212.087 63.513C212.146 62.808 212.175 62.1285 212.175 61.475H210.175ZM210.09 63.43C210.09 64.0823 210.063 64.765 210.008 65.4783L212.002 65.6317C212.061 64.8717 212.09 64.1377 212.09 63.43H210.09ZM211.005 64.555H178.96V66.555H211.005V64.555ZM177.963 65.6238C178.203 69.1144 179.42 71.9517 181.684 74.0272L183.036 72.5528C181.22 70.8883 180.17 68.5689 179.958 65.4862L177.963 65.6238ZM181.695 74.0363C183.984 76.0782 186.746 77.095 189.925 77.095V75.095C187.211 75.095 184.93 74.2418 183.026 72.5437L181.695 74.0363ZM189.925 77.095C192.28 77.095 194.324 76.5809 195.997 75.487L194.903 73.813C193.629 74.6458 191.99 75.095 189.925 75.095V77.095ZM196.005 75.482C197.68 74.3655 198.939 72.9232 199.757 71.1611L197.943 70.3189C197.288 71.7301 196.281 72.8945 194.895 73.8179L196.005 75.482ZM198.85 71.74H209.9V69.74H198.85V71.74ZM208.942 70.4545C208.19 72.98 206.926 75.295 205.142 77.4041L206.669 78.6959C208.624 76.385 210.024 73.8267 210.859 71.0255L208.942 70.4545ZM205.14 77.4059C203.428 79.4392 201.283 81.0518 198.689 82.2409L199.522 84.0591C202.367 82.7548 204.756 80.9674 206.67 78.6941L205.14 77.4059ZM198.681 82.2443C196.17 83.4199 193.286 84.02 190.01 84.02V86.02C193.534 86.02 196.714 85.3735 199.529 84.0557L198.681 82.2443ZM190.095 48.66C187.226 48.66 184.661 49.4891 182.44 51.155L183.64 52.755C185.499 51.3609 187.638 50.66 190.095 50.66V48.66ZM182.455 51.1443C180.159 52.802 178.749 55.323 178.147 58.5729L180.113 58.9371C180.645 56.067 181.841 54.0547 183.626 52.7657L182.455 51.1443ZM179.13 59.755H200.125V57.755H179.13V59.755ZM201.123 58.6939C200.939 55.6856 199.82 53.2144 197.725 51.3738L196.405 52.8762C198.051 54.3223 198.971 56.2711 199.127 58.8161L201.123 58.6939ZM197.725 51.3738C195.651 49.5513 193.085 48.66 190.095 48.66V50.66C192.659 50.66 194.739 51.412 196.405 52.8762L197.725 51.3738ZM231.801 84H230.801C230.801 84.5523 231.249 85 231.801 85V84ZM231.801 41.84V40.84C231.249 40.84 230.801 41.2877 230.801 41.84H231.801ZM241.406 41.84L242.399 41.7218C242.339 41.2188 241.913 40.84 241.406 40.84V41.84ZM242.256 48.98L241.263 49.0982C241.315 49.5336 241.644 49.8844 242.075 49.9636C242.507 50.0427 242.939 49.8318 243.142 49.4433L242.256 48.98ZM247.866 43.03L247.357 42.169L247.349 42.1743L247.866 43.03ZM268.776 45.75L268.025 46.4103L268.025 46.4103L268.776 45.75ZM273.111 84V85C273.663 85 274.111 84.5523 274.111 84H273.111ZM262.231 84H261.231C261.231 84.5523 261.679 85 262.231 85V84ZM260.021 52.89L260.815 52.2825L260.815 52.2825L260.021 52.89ZM245.571 53.23L244.835 52.5525C244.832 52.5561 244.829 52.5596 244.826 52.5632L245.571 53.23ZM242.681 84V85C243.233 85 243.681 84.5523 243.681 84H242.681ZM232.801 84V41.84H230.801V84H232.801ZM231.801 42.84H241.406V40.84H231.801V42.84ZM240.413 41.9582L241.263 49.0982L243.249 48.8618L242.399 41.7218L240.413 41.9582ZM243.142 49.4433C244.36 47.1141 246.101 45.2656 248.383 43.8857L247.349 42.1743C244.757 43.741 242.759 45.8593 241.37 48.5167L243.142 49.4433ZM248.375 43.8909C250.691 42.5219 253.429 41.82 256.621 41.82V39.82C253.127 39.82 250.027 40.5914 247.357 42.1691L248.375 43.8909ZM256.621 41.82C261.607 41.82 265.361 43.381 268.025 46.4103L269.527 45.0897C266.411 41.5456 262.062 39.82 256.621 39.82V41.82ZM268.025 46.4103C270.695 49.4473 272.111 53.9889 272.111 60.2H274.111C274.111 53.7178 272.637 48.626 269.527 45.0897L268.025 46.4103ZM272.111 60.2V84H274.111V60.2H272.111ZM273.111 83H262.231V85H273.111V83ZM263.231 84V61.22H261.231V84H263.231ZM263.231 61.22C263.231 57.4775 262.474 54.4512 260.815 52.2825L259.227 53.4974C260.515 55.1822 261.231 57.7092 261.231 61.22H263.231ZM260.815 52.2825C259.101 50.0403 256.467 49 253.136 49V51C256.038 51 257.995 51.8864 259.227 53.4974L260.815 52.2825ZM253.136 49C249.811 49 247.018 50.1833 244.835 52.5525L246.307 53.9075C248.091 51.97 250.341 51 253.136 51V49ZM244.826 52.5632C242.687 54.9538 241.681 58.224 241.681 62.24H243.681C243.681 58.5493 244.602 55.8129 246.316 53.8968L244.826 52.5632ZM241.681 62.24V84H243.681V62.24H241.681ZM242.681 83H231.801V85H242.681V83Z" fill="#0E3EA4"/>
<path d="M4.42 167L10.795 130.875H4.505L5.525 124.84H11.815L13.09 117.53C13.8267 113.45 15.385 110.475 17.765 108.605C20.145 106.735 23.3183 105.8 27.285 105.8H31.45L30.345 111.92H27.285C25.1317 111.92 23.5167 112.373 22.44 113.28C21.3633 114.13 20.6267 115.603 20.23 117.7L18.955 124.84H29.41L28.305 130.875H17.935L11.56 167H4.42ZM45.8137 168.02C41.5637 168.02 38.2203 166.858 35.7837 164.535C33.4037 162.155 32.2137 158.783 32.2137 154.42C32.2137 153.627 32.242 152.833 32.2987 152.04C32.3553 151.19 32.4687 150.34 32.6387 149.49L37.0587 124.84H44.1987L39.9487 148.725C39.8353 149.462 39.722 150.17 39.6087 150.85C39.552 151.53 39.5237 152.182 39.5237 152.805C39.5237 158.868 42.4987 161.9 48.4487 161.9C52.0187 161.9 55.2203 160.653 58.0537 158.16C60.887 155.667 62.7853 152.097 63.7487 147.45L67.7437 124.84H74.8837L67.4887 167H61.0287L61.8787 159.35C60.0653 162.07 57.742 164.195 54.9087 165.725C52.0753 167.255 49.0437 168.02 45.8137 168.02ZM94.5393 167C91.0259 167 88.3059 166.32 86.3793 164.96C84.4526 163.543 83.4893 161.163 83.4893 157.82C83.4893 157.253 83.5176 156.658 83.5743 156.035C83.6309 155.355 83.7159 154.647 83.8293 153.91L87.9093 130.875H81.3643L82.4693 124.84H89.0143L91.7343 114.725H98.0243L96.1543 124.84H108.649L107.544 130.875H95.1343L90.9693 153.91C90.8559 154.817 90.7993 155.61 90.7993 156.29C90.7993 158.047 91.2526 159.265 92.1593 159.945C93.1226 160.568 94.6526 160.88 96.7493 160.88H102.274L101.169 167H94.5393ZM125.999 168.02C121.749 168.02 118.406 166.858 115.969 164.535C113.589 162.155 112.399 158.783 112.399 154.42C112.399 153.627 112.428 152.833 112.484 152.04C112.541 151.19 112.654 150.34 112.824 149.49L117.244 124.84H124.384L120.134 148.725C120.021 149.462 119.908 150.17 119.794 150.85C119.738 151.53 119.709 152.182 119.709 152.805C119.709 158.868 122.684 161.9 128.634 161.9C132.204 161.9 135.406 160.653 138.239 158.16C141.073 155.667 142.971 152.097 143.934 147.45L147.929 124.84H155.069L147.674 167H141.214L142.064 159.35C140.251 162.07 137.928 164.195 135.094 165.725C132.261 167.255 129.229 168.02 125.999 168.02ZM159.51 167L166.905 124.84H173.45L172.685 132.32C174.498 129.713 176.878 127.645 179.825 126.115C182.828 124.585 186.228 123.82 190.025 123.82L188.75 131.3H186.795C184.245 131.3 181.836 131.697 179.57 132.49C177.36 133.283 175.461 134.643 173.875 136.57C172.288 138.44 171.211 141.018 170.645 144.305L166.65 167H159.51ZM208.01 168.02C202.796 168.02 198.603 166.405 195.43 163.175C192.313 159.945 190.755 155.61 190.755 150.17C190.755 145.297 191.831 140.877 193.985 136.91C196.138 132.887 199.085 129.713 202.825 127.39C206.621 125.01 210.928 123.82 215.745 123.82C219.428 123.82 222.516 124.557 225.01 126.03C227.56 127.447 229.458 129.373 230.705 131.81C232.008 134.247 232.66 136.938 232.66 139.885C232.66 141.018 232.518 142.322 232.235 143.795C232.008 145.212 231.781 146.458 231.555 147.535H197.895C197.781 148.498 197.725 149.348 197.725 150.085C197.725 154.108 198.858 157.112 201.125 159.095C203.391 161.022 206.055 161.985 209.115 161.985C212.061 161.985 214.64 161.305 216.85 159.945C219.116 158.528 220.873 156.687 222.12 154.42H229.175C227.418 158.33 224.698 161.588 221.015 164.195C217.331 166.745 212.996 168.02 208.01 168.02ZM214.81 129.855C211.41 129.855 208.208 130.903 205.205 133C202.201 135.04 200.133 138.043 199 142.01H225.52C225.576 141.67 225.605 141.358 225.605 141.075C225.661 140.735 225.69 140.423 225.69 140.14C225.69 136.91 224.698 134.388 222.715 132.575C220.731 130.762 218.096 129.855 214.81 129.855ZM253.855 168.02C248.585 168.02 244.477 166.688 241.53 164.025C238.583 161.305 237.308 157.65 237.705 153.06H244.93C244.817 155.44 245.525 157.537 247.055 159.35C248.585 161.107 251.192 161.985 254.875 161.985C257.878 161.985 260.287 161.333 262.1 160.03C263.913 158.67 264.82 156.8 264.82 154.42C264.82 152.55 263.97 151.19 262.27 150.34C260.627 149.49 258.417 148.782 255.64 148.215C253.543 147.762 251.503 147.138 249.52 146.345C247.537 145.495 245.865 144.333 244.505 142.86C243.202 141.387 242.55 139.517 242.55 137.25C242.55 134.7 243.287 132.433 244.76 130.45C246.233 128.41 248.245 126.795 250.795 125.605C253.402 124.415 256.348 123.82 259.635 123.82C264.112 123.82 267.682 124.953 270.345 127.22C273.065 129.43 274.312 132.603 274.085 136.74H266.945C267.058 134.643 266.378 132.972 264.905 131.725C263.488 130.478 261.477 129.855 258.87 129.855C256.263 129.855 254.11 130.478 252.41 131.725C250.767 132.915 249.945 134.388 249.945 136.145C249.945 137.845 250.738 139.12 252.325 139.97C253.968 140.82 256.15 141.557 258.87 142.18C261.193 142.69 263.375 143.37 265.415 144.22C267.455 145.07 269.098 146.232 270.345 147.705C271.648 149.178 272.3 151.105 272.3 153.485C272.3 156.432 271.507 159.01 269.92 161.22C268.333 163.373 266.152 165.045 263.375 166.235C260.598 167.425 257.425 168.02 253.855 168.02Z" fill="#0E3EA4"/>
<path d="M10.38 219.36C9.22 219.36 8.19 219.13 7.29 218.67C6.41 218.21 5.71 217.56 5.19 216.72L4.86 219H2.01V197.4H5.19V206.43C5.67 205.73 6.33 205.11 7.17 204.57C8.01 204.03 9.09 203.76 10.41 203.76C11.85 203.76 13.12 204.1 14.22 204.78C15.32 205.46 16.18 206.39 16.8 207.57C17.44 208.75 17.76 210.09 17.76 211.59C17.76 213.09 17.44 214.43 16.8 215.61C16.18 216.77 15.32 217.69 14.22 218.37C13.12 219.03 11.84 219.36 10.38 219.36ZM9.84 216.6C11.2 216.6 12.32 216.14 13.2 215.22C14.08 214.28 14.52 213.06 14.52 211.56C14.52 210.58 14.32 209.71 13.92 208.95C13.52 208.19 12.97 207.6 12.27 207.18C11.57 206.74 10.76 206.52 9.84 206.52C8.48 206.52 7.36 206.99 6.48 207.93C5.62 208.87 5.19 210.08 5.19 211.56C5.19 213.06 5.62 214.28 6.48 215.22C7.36 216.14 8.48 216.6 9.84 216.6ZM21.6797 225.6L25.2497 217.77H24.3797L18.4997 204.12H21.9497L26.5097 215.13L31.2797 204.12H34.6397L25.0397 225.6H21.6797ZM51.9827 219.36C50.4827 219.36 49.1527 219.04 47.9927 218.4C46.8327 217.76 45.9227 216.86 45.2627 215.7C44.6027 214.54 44.2727 213.2 44.2727 211.68C44.2727 210.14 44.5927 208.77 45.2327 207.57C45.8927 206.37 46.7927 205.44 47.9327 204.78C49.0927 204.1 50.4527 203.76 52.0127 203.76C53.4727 203.76 54.7627 204.08 55.8827 204.72C57.0027 205.36 57.8727 206.24 58.4927 207.36C59.1327 208.46 59.4527 209.69 59.4527 211.05C59.4527 211.27 59.4427 211.5 59.4227 211.74C59.4227 211.98 59.4127 212.23 59.3927 212.49H48.0827C48.1627 213.65 48.5627 214.56 49.2827 215.22C50.0227 215.88 50.9127 216.21 51.9527 216.21C52.7327 216.21 53.3827 216.04 53.9027 215.7C54.4427 215.34 54.8427 214.88 55.1027 214.32H59.0027C58.7227 215.26 58.2527 216.12 57.5927 216.9C56.9527 217.66 56.1527 218.26 55.1927 218.7C54.2527 219.14 53.1827 219.36 51.9827 219.36ZM52.0127 206.88C51.0727 206.88 50.2427 207.15 49.5227 207.69C48.8027 208.21 48.3427 209.01 48.1427 210.09H55.5527C55.4927 209.11 55.1327 208.33 54.4727 207.75C53.8127 207.17 52.9927 206.88 52.0127 206.88ZM67.8124 219.36C66.5324 219.36 65.4824 219.16 64.6624 218.76C63.8424 218.34 63.2324 217.79 62.8324 217.11C62.4324 216.43 62.2324 215.68 62.2324 214.86C62.2324 213.48 62.7724 212.36 63.8524 211.5C64.9324 210.64 66.5524 210.21 68.7124 210.21H72.4924V209.85C72.4924 208.83 72.2024 208.08 71.6224 207.6C71.0424 207.12 70.3224 206.88 69.4624 206.88C68.6824 206.88 68.0024 207.07 67.4224 207.45C66.8424 207.81 66.4824 208.35 66.3424 209.07H62.5924C62.6924 207.99 63.0524 207.05 63.6724 206.25C64.3124 205.45 65.1324 204.84 66.1324 204.42C67.1324 203.98 68.2524 203.76 69.4924 203.76C71.6124 203.76 73.2824 204.29 74.5024 205.35C75.7224 206.41 76.3324 207.91 76.3324 209.85V219H73.0624L72.7024 216.6C72.2624 217.4 71.6424 218.06 70.8424 218.58C70.0624 219.1 69.0524 219.36 67.8124 219.36ZM68.6824 216.36C69.7824 216.36 70.6324 216 71.2324 215.28C71.8524 214.56 72.2424 213.67 72.4024 212.61H69.1324C68.1124 212.61 67.3824 212.8 66.9424 213.18C66.5024 213.54 66.2824 213.99 66.2824 214.53C66.2824 215.11 66.5024 215.56 66.9424 215.88C67.3824 216.2 67.9624 216.36 68.6824 216.36ZM79.9969 219V204.12H83.4169L83.7769 206.91C84.3169 205.95 85.0469 205.19 85.9669 204.63C86.9069 204.05 88.0069 203.76 89.2669 203.76V207.81H88.1869C87.3469 207.81 86.5969 207.94 85.9369 208.2C85.2769 208.46 84.7569 208.91 84.3769 209.55C84.0169 210.19 83.8369 211.08 83.8369 212.22V219H79.9969ZM98.5214 219C96.9614 219 95.7114 218.62 94.7714 217.86C93.8314 217.1 93.3614 215.75 93.3614 213.81V207.33H90.8114V204.12H93.3614L93.8114 200.13H97.2014V204.12H101.221V207.33H97.2014V213.84C97.2014 214.56 97.3514 215.06 97.6514 215.34C97.9714 215.6 98.5114 215.73 99.2714 215.73H101.131V219H98.5214ZM104.518 219V197.4H108.358V206.4C108.858 205.58 109.528 204.94 110.368 204.48C111.228 204 112.208 203.76 113.308 203.76C115.148 203.76 116.568 204.34 117.568 205.5C118.588 206.66 119.098 208.36 119.098 210.6V219H115.288V210.96C115.288 209.68 115.028 208.7 114.508 208.02C114.008 207.34 113.208 207 112.108 207C111.028 207 110.128 207.38 109.408 208.14C108.708 208.9 108.358 209.96 108.358 211.32V219H104.518ZM123.46 219V207.33H121.42V204.12H123.46V202.38C123.46 200.58 123.91 199.3 124.81 198.54C125.73 197.78 126.97 197.4 128.53 197.4H130.18V200.67H129.13C128.47 200.67 128 200.8 127.72 201.06C127.44 201.32 127.3 201.76 127.3 202.38V204.12H130.51V207.33H127.3V219H123.46ZM140.106 219.36C138.666 219.36 137.366 219.03 136.206 218.37C135.066 217.71 134.156 216.8 133.476 215.64C132.816 214.46 132.486 213.1 132.486 211.56C132.486 210.02 132.826 208.67 133.506 207.51C134.186 206.33 135.096 205.41 136.236 204.75C137.396 204.09 138.696 203.76 140.136 203.76C141.556 203.76 142.836 204.09 143.976 204.75C145.136 205.41 146.046 206.33 146.706 207.51C147.386 208.67 147.726 210.02 147.726 211.56C147.726 213.1 147.386 214.46 146.706 215.64C146.046 216.8 145.136 217.71 143.976 218.37C142.816 219.03 141.526 219.36 140.106 219.36ZM140.106 216.03C141.106 216.03 141.976 215.66 142.716 214.92C143.456 214.16 143.826 213.04 143.826 211.56C143.826 210.08 143.456 208.97 142.716 208.23C141.976 207.47 141.116 207.09 140.136 207.09C139.116 207.09 138.236 207.47 137.496 208.23C136.776 208.97 136.416 210.08 136.416 211.56C136.416 213.04 136.776 214.16 137.496 214.92C138.236 215.66 139.106 216.03 140.106 216.03ZM151.159 219V204.12H154.579L154.939 206.91C155.479 205.95 156.209 205.19 157.129 204.63C158.069 204.05 159.169 203.76 160.429 203.76V207.81H159.349C158.509 207.81 157.759 207.94 157.099 208.2C156.439 208.46 155.919 208.91 155.539 209.55C155.179 210.19 154.999 211.08 154.999 212.22V219H151.159ZM163.054 219V204.12H166.444L166.774 206.13C167.254 205.41 167.884 204.84 168.664 204.42C169.464 203.98 170.384 203.76 171.424 203.76C173.724 203.76 175.354 204.65 176.314 206.43C176.854 205.61 177.574 204.96 178.474 204.48C179.394 204 180.394 203.76 181.474 203.76C183.414 203.76 184.904 204.34 185.944 205.5C186.984 206.66 187.504 208.36 187.504 210.6V219H183.664V210.96C183.664 209.68 183.414 208.7 182.914 208.02C182.434 207.34 181.684 207 180.664 207C179.624 207 178.784 207.38 178.144 208.14C177.524 208.9 177.214 209.96 177.214 211.32V219H173.374V210.96C173.374 209.68 173.124 208.7 172.624 208.02C172.124 207.34 171.354 207 170.314 207C169.294 207 168.464 207.38 167.824 208.14C167.204 208.9 166.894 209.96 166.894 211.32V219H163.054Z" fill="#0E3EA4"/>
</svg>
