<svg width="70" height="60" viewBox="0 0 70 60" fill="none" xmlns="http://www.w3.org/2000/svg">
  <g clip-path="url(#clip0_330_19)">
    <path
      d="M65.2024 33.3019V12.0576C65.2024 10.1915 64.4967 8.46901 63.2265 7.17713C61.9564 5.88525 60.2628 5.16753 58.4281 5.16753C55.1821 5.16753 52.5006 7.46422 51.795 10.4786C46.2909 3.87565 38.1053 0 29.4963 0C26.5326 0 23.5688 0.430628 20.8873 1.29188C8.32671 5.16754 0 16.7945 0 30.0004C0 33.0148 0.423392 35.8857 1.27018 38.613V38.7565V38.9001C4.51618 49.2351 12.984 57.2735 23.7091 59.4258C25.5438 59.8565 27.3785 60 29.3544 60C30.6245 60 32.0359 59.8565 33.1649 59.7129H33.306C39.6569 58.8517 45.4433 55.8373 49.9594 51.3874C52.0764 53.5406 55.0401 54.976 58.2862 54.976C64.7782 54.976 70 49.6649 70 43.062C70 39.1863 68.3064 35.5978 65.2016 33.3011L65.2024 33.3019ZM51.5127 14.9284V21.6749L49.1135 22.1056L45.1618 20.096C44.8795 19.9524 44.5973 19.9524 44.315 19.9524L38.9521 21.1008L36.694 20.5266L37.6819 18.0864C37.823 17.6557 37.823 17.2251 37.6819 16.938L34.577 10.4786L37.2585 4.01919C43.0449 5.88525 48.1256 9.7609 51.5127 14.9284ZM34.577 3.44502L31.7544 10.048C31.6133 10.4786 31.6133 10.9092 31.7544 11.1963L34.8593 17.6557L33.448 20.9572C33.3068 21.3879 33.3068 21.8185 33.448 22.1056C33.5891 22.5362 34.0125 22.8233 34.2947 22.8233L38.3875 23.9716H39.0932L44.315 22.8233L48.2667 24.8329C48.4078 24.9764 48.6901 24.9764 48.8312 24.9764H49.1135L51.3716 24.5458V29.2827C51.2304 29.2827 51.2304 29.1392 51.0893 29.1392L45.0207 27.1296C44.4562 26.986 43.7505 27.1296 43.4682 27.7037L40.6456 32.01C40.5045 32.2971 40.3634 32.7277 40.5045 33.1583L41.6335 38.613L39.3755 42.058C39.0932 42.4886 39.0932 42.9192 39.2343 43.3499L42.6215 53.3979C40.0811 54.8333 37.2585 55.9816 34.2947 56.5558L33.1657 49.5222L34.577 41.9145C34.7181 41.1967 34.2947 40.479 33.5891 40.3355L27.2382 38.1823L21.8753 31.4358L22.5809 27.5602C22.5809 27.1296 22.5809 26.8425 22.2986 26.5554L16.5123 17.7993L19.1938 12.6318C19.1938 12.6318 19.1938 12.4882 19.3349 12.4882L22.2986 4.01919C24.5567 3.30148 26.956 3.0144 29.4963 3.0144C31.1899 2.87085 32.8834 3.0144 34.577 3.44502ZM4.37505 39.3307L11.5727 37.034L15.2421 38.0388L13.5485 45.7901C13.4074 46.3643 13.6897 47.082 14.2542 47.3691L22.5809 51.8189V56.1252C14.1131 53.972 7.33879 47.5126 4.37424 39.3299L4.37505 39.3307ZM25.4043 56.8429V51.1012C25.4043 50.527 25.1221 50.0964 24.6987 49.8093L16.5131 45.503L18.2067 37.4646C18.3478 36.7469 17.9244 36.0292 17.2187 35.7421L11.8558 34.1631C11.5735 34.0196 11.2913 34.0196 11.009 34.1631L3.38794 36.6034C2.82342 34.4502 2.54116 32.2971 2.54116 30.0004C2.54116 19.0912 8.89204 9.33027 18.6301 5.16672L16.6542 11.339L13.6905 17.0808C13.4082 17.5114 13.5494 18.0856 13.8316 18.5162L19.7591 27.5594L19.0534 31.435C18.9123 31.8656 19.0534 32.2963 19.3357 32.5834L25.4043 40.1911C25.5455 40.3347 25.8277 40.6217 26.11 40.6217L31.6141 42.4878L30.485 49.2343V49.6649L31.6141 56.8421C29.4971 57.1291 27.3802 57.1291 25.4043 56.8421V56.8429ZM45.0207 51.9624L42.0569 43.2063L44.315 39.7613C44.4562 39.4742 44.5973 39.0436 44.4562 38.613L43.4682 33.1583L45.3029 30.2875L50.1014 31.8665L51.5127 32.7277V33.3019C48.4078 35.5986 46.7142 39.0436 46.7142 42.9192C46.7142 45.0724 47.2788 47.2255 48.4078 48.948C47.2788 50.0964 46.2909 51.1012 45.0207 51.9624ZM58.4281 51.9624C53.4885 51.9624 49.5369 47.9432 49.5369 42.9192C49.5369 39.7613 51.0893 36.8905 53.7708 35.3115C53.7708 35.3115 53.7708 35.1679 53.9119 35.1679C54.053 35.1679 54.053 35.0244 54.1942 35.0244C54.1942 35.0244 54.3353 34.8809 54.3353 34.7373C54.3353 34.5938 54.4764 34.5938 54.4764 34.4502V34.1631V34.0196V12.0568C54.4764 9.76008 56.3111 8.03757 58.4281 8.03757C59.5571 8.03757 60.5451 8.4682 61.2507 9.18591C61.9564 9.90362 62.3798 11.052 62.3798 12.0568V34.0196V34.1631V34.4502C62.3798 34.5938 62.3798 34.5938 62.5209 34.7373C62.5209 34.8809 62.662 34.8809 62.662 35.0244C62.662 35.1679 62.8031 35.1679 62.9443 35.1679C62.9443 35.1679 62.9443 35.3115 63.0854 35.3115C65.7669 37.034 67.3193 39.7613 67.3193 42.9192C67.1782 47.9432 63.2265 51.9624 58.4281 51.9624Z"
      fill="white" />
    <path
      d="M59.8394 36.0303V15.0731C59.8394 14.2119 59.2749 13.6377 58.4281 13.6377C57.5813 13.6377 57.0168 14.2119 57.0168 15.0731V36.0303C53.7708 36.7481 51.3716 39.6189 51.3716 43.0639C51.3716 46.9396 54.4765 50.2411 58.4281 50.2411C62.3798 50.2411 65.4846 47.0831 65.4846 43.0639C65.3435 39.4754 62.9443 36.6045 59.8394 36.0303ZM58.4281 47.2267C56.17 47.2267 54.1942 45.3606 54.1942 42.9204C54.1942 40.4802 56.0289 38.6141 58.4281 38.6141C60.8273 38.6141 62.662 40.4802 62.662 42.9204C62.662 45.3606 60.6862 47.2267 58.4281 47.2267Z"
      fill="white" />
  </g>
  <defs>
    <clipPath id="clip0_330_19">
      <rect width="70" height="60" fill="white" />
    </clipPath>
  </defs>
</svg>
  