<svg width="60" height="60" viewBox="0 0 60 60" fill="none" xmlns="http://www.w3.org/2000/svg">
  <g clip-path="url(#clip0_330_22)">
    <path
      d="M35.5782 9.23487L27.0191 0.674644C26.5437 0.224508 25.9209 -0.0175473 25.2559 0.000990285C25.1405 0.0123207 25.1106 0.0123211 24.9973 0.0308616C23.7281 0.247682 22.7957 1.66654 23.165 2.94743C23.2366 3.19669 23.3494 3.43412 23.4998 3.64426C23.576 3.75035 23.6616 3.84718 23.7512 3.94194L29.0403 9.23279C26.2597 9.23279 23.4786 9.23485 20.6955 9.23948C13.7975 9.27193 7.01536 12.945 3.24653 18.8215C-0.309852 24.3683 -1.01601 31.6641 1.48331 37.8311C3.4748 42.7526 7.42772 46.8409 12.2606 49.0076C14.9052 50.1937 17.8058 50.8051 20.6905 50.8189C21.9391 50.821 23.1852 50.8236 24.4312 50.8236L32.993 59.3838C33.0759 59.4621 33.0945 59.4832 33.1846 59.5548C34.4101 60.5333 36.6162 59.8272 36.9048 58.1359C37.0269 57.4138 36.7708 56.6567 36.2609 56.117L30.9691 50.8262C33.7497 50.8262 36.5328 50.8241 39.3139 50.8195C45.8445 50.7896 52.2763 47.5177 56.1299 42.1671C60.5789 35.993 61.3109 27.3819 57.7061 20.4508C54.2353 13.7734 47.0309 9.2763 39.313 9.23978C38.0669 9.23772 36.8229 9.23514 35.5769 9.23514L35.5782 9.23487ZM24.4229 46.2045C23.1835 46.2024 21.9468 46.2024 20.7073 46.1998C14.3473 46.17 8.20649 42.125 5.76651 36.0987C3.80284 31.2555 4.37977 25.4414 7.29646 21.0709C10.2228 16.6803 15.327 13.8837 20.7115 13.8586C23.4921 13.8539 26.2706 13.8539 29.0517 13.8539L23.7507 19.1561C23.7507 19.1561 23.5545 19.357 23.4278 19.5599C22.7241 20.6811 23.213 22.3884 24.5007 22.9241C25.2574 23.2357 26.1805 23.1084 26.8244 22.5939C26.9145 22.5223 26.9352 22.5017 27.0181 22.4229L35.5845 13.8581L39.2444 13.8581C43.2783 13.8648 47.2684 15.4176 50.2292 18.1565C55.1887 22.746 56.901 30.5603 53.8686 36.9499C51.2631 42.439 45.3625 46.1698 39.2996 46.1996C36.5165 46.2043 33.7359 46.2063 30.9548 46.2063L36.2604 40.9017C36.2604 40.9017 36.7472 40.3526 36.8791 39.7825C37.1629 38.532 36.2053 37.1224 34.8851 36.9721C34.6358 36.9443 34.576 36.9607 34.4951 36.9628C33.9321 37.0092 33.4057 37.2445 32.993 37.6344L24.422 46.2039L24.4229 46.2045Z"
      fill="white" />
  </g>
  <defs>
    <clipPath id="clip0_330_22">
      <rect width="60" height="60" fill="white" />
    </clipPath>
  </defs>
</svg>
  