<svg width="117" height="32" viewBox="0 0 117 32" fill="none" xmlns="http://www.w3.org/2000/svg">
<g clip-path="url(#clip0_268_28)">
<g clip-path="url(#clip1_268_28)">
<rect y="16.7559" width="7.28687" height="7.47815" rx="3.64344" fill="white"/>
<rect x="6.59277" y="23.5215" width="7.28687" height="7.47815" rx="3.64344" fill="white"/>
<path fill-rule="evenodd" clip-rule="evenodd" d="M3.53921 24.236C5.69437 24.236 7.28853 22.5105 7.28853 20.2988C7.28853 22.1313 8.55459 23.5201 10.3403 23.5201C8.16046 23.6096 6.59098 25.1561 6.59098 27.3679C6.59098 25.5353 5.32491 24.236 3.53921 24.236Z" fill="white"/>
<rect y="26.1543" width="4.49735" height="4.61541" rx="2.24868" fill="white"/>
<rect x="14.8101" y="1.23926" width="7.28687" height="7.47815" rx="3.64344" fill="white"/>
<rect x="21.4028" y="8.00488" width="7.28687" height="7.47815" rx="3.64344" fill="white"/>
<path fill-rule="evenodd" clip-rule="evenodd" d="M18.3493 8.71937C20.5044 8.71937 22.0986 6.99389 22.0986 4.78216C22.0986 6.61473 23.3646 8.00352 25.1504 8.00352C22.9705 8.093 21.401 9.63952 21.401 11.8512C21.401 10.0187 20.135 8.71937 18.3493 8.71937Z" fill="white"/>
<rect x="24.2856" y="1.23145" width="4.49735" height="4.61541" rx="2.24868" fill="white"/>
<rect width="7.28687" height="7.47815" rx="3.64344" transform="matrix(-1 0 0 1 13.8799 1)" fill="white"/>
<rect width="7.28687" height="7.47815" rx="3.64344" transform="matrix(-1 0 0 1 7.28711 7.76562)" fill="white"/>
<path fill-rule="evenodd" clip-rule="evenodd" d="M10.3407 8.48012C8.18551 8.48012 6.59136 6.75463 6.59136 4.5429C6.59136 6.37547 5.32529 7.76426 3.53959 7.76426C5.71942 7.85374 7.2889 9.40026 7.2889 11.612C7.2889 9.77942 8.55497 8.48012 10.3407 8.48012Z" fill="white"/>
<rect width="4.49735" height="4.61541" rx="2.24868" transform="matrix(-1 0 0 1 4.49707 0.769531)" fill="white"/>
<rect width="7.28687" height="7.47815" rx="3.64344" transform="matrix(-1 0 0 1 29 16.7559)" fill="white"/>
<rect width="7.28687" height="7.47815" rx="3.64344" transform="matrix(-1 0 0 1 22.4072 23.5215)" fill="white"/>
<path fill-rule="evenodd" clip-rule="evenodd" d="M25.4608 24.236C23.3056 24.236 21.7115 22.5105 21.7115 20.2988C21.7115 22.1313 20.4454 23.5201 18.6597 23.5201C20.8395 23.6096 22.409 25.1561 22.409 27.3679C22.409 25.5353 23.6751 24.236 25.4608 24.236Z" fill="white"/>
<rect width="4.49735" height="4.61541" rx="2.24868" transform="matrix(-1 0 0 1 29 26.1543)" fill="white"/>
<rect x="9.42139" y="10.8193" width="10.1574" height="10.424" rx="5.07868" fill="white"/>
</g>
<path d="M38.056 14V2.8H45.256V4.72H40.168V7.392H44.808V9.312H40.168V12.08H45.352V14H38.056ZM49.4434 14.224C48.878 14.224 48.3714 14.128 47.9234 13.936C47.4754 13.7333 47.118 13.4453 46.8514 13.072C46.5954 12.688 46.4674 12.224 46.4674 11.68C46.4674 11.136 46.5954 10.6827 46.8514 10.32C47.118 9.94667 47.4807 9.66933 47.9394 9.488C48.4087 9.296 48.942 9.2 49.5394 9.2H51.7154V8.752C51.7154 8.37867 51.598 8.07467 51.3634 7.84C51.1287 7.59467 50.7554 7.472 50.2434 7.472C49.742 7.472 49.3687 7.58933 49.1234 7.824C48.878 8.048 48.718 8.34133 48.6434 8.704L46.7874 8.08C46.9154 7.67467 47.118 7.30667 47.3954 6.976C47.6834 6.63467 48.062 6.36267 48.5314 6.16C49.0114 5.94667 49.5927 5.84 50.2754 5.84C51.3207 5.84 52.1474 6.10133 52.7554 6.624C53.3634 7.14667 53.6674 7.904 53.6674 8.896V11.856C53.6674 12.176 53.8167 12.336 54.1154 12.336H54.7554V14H53.4114C53.0167 14 52.6914 13.904 52.4354 13.712C52.1794 13.52 52.0514 13.264 52.0514 12.944V12.928H51.7474C51.7047 13.056 51.6087 13.2267 51.4594 13.44C51.31 13.6427 51.0754 13.824 50.7554 13.984C50.4354 14.144 49.998 14.224 49.4434 14.224ZM49.7954 12.592C50.3607 12.592 50.8194 12.4373 51.1714 12.128C51.534 11.808 51.7154 11.3867 51.7154 10.864V10.704H49.6834C49.31 10.704 49.0167 10.784 48.8034 10.944C48.59 11.104 48.4834 11.328 48.4834 11.616C48.4834 11.904 48.5954 12.1387 48.8194 12.32C49.0434 12.5013 49.3687 12.592 49.7954 12.592ZM56.2294 14V6.064H58.2134V6.96H58.5014C58.6187 6.64 58.8107 6.40533 59.0774 6.256C59.3547 6.10667 59.6747 6.032 60.0374 6.032H60.9974V7.824H60.0054C59.4934 7.824 59.072 7.96267 58.7414 8.24C58.4107 8.50667 58.2454 8.92267 58.2454 9.488V14H56.2294ZM65.6131 14C65.0905 14 64.6638 13.84 64.3331 13.52C64.0131 13.1893 63.8531 12.752 63.8531 12.208V7.728H61.8691V6.064H63.8531V3.6H65.8691V6.064H68.0451V7.728H65.8691V11.856C65.8691 12.176 66.0185 12.336 66.3171 12.336H67.8531V14H65.6131ZM69.87 14V2.8H71.886V7.04H72.174C72.2593 6.86933 72.3927 6.69867 72.574 6.528C72.7553 6.35733 72.9953 6.21867 73.294 6.112C73.6033 5.99467 73.9927 5.936 74.462 5.936C75.0807 5.936 75.6193 6.08 76.078 6.368C76.5473 6.64533 76.91 7.03467 77.166 7.536C77.422 8.02667 77.55 8.60267 77.55 9.264V14H75.534V9.424C75.534 8.82667 75.3847 8.37867 75.086 8.08C74.798 7.78133 74.382 7.632 73.838 7.632C73.2193 7.632 72.7393 7.84 72.398 8.256C72.0567 8.66133 71.886 9.232 71.886 9.968V14H69.87ZM79.6654 14V2.8H86.7054V4.72H81.7774V7.424H86.3214V9.344H81.7774V14H79.6654ZM91.9898 14.224C91.2004 14.224 90.4911 14.064 89.8618 13.744C89.2324 13.424 88.7364 12.96 88.3738 12.352C88.0111 11.744 87.8298 11.0133 87.8298 10.16V9.904C87.8298 9.05067 88.0111 8.32 88.3738 7.712C88.7364 7.104 89.2324 6.64 89.8618 6.32C90.4911 6 91.2004 5.84 91.9898 5.84C92.7791 5.84 93.4884 6 94.1178 6.32C94.7471 6.64 95.2431 7.104 95.6058 7.712C95.9684 8.32 96.1498 9.05067 96.1498 9.904V10.16C96.1498 11.0133 95.9684 11.744 95.6058 12.352C95.2431 12.96 94.7471 13.424 94.1178 13.744C93.4884 14.064 92.7791 14.224 91.9898 14.224ZM91.9898 12.432C92.6084 12.432 93.1204 12.2347 93.5258 11.84C93.9311 11.4347 94.1338 10.8587 94.1338 10.112V9.952C94.1338 9.20533 93.9311 8.63467 93.5258 8.24C93.1311 7.83467 92.6191 7.632 91.9898 7.632C91.3711 7.632 90.8591 7.83467 90.4538 8.24C90.0484 8.63467 89.8458 9.20533 89.8458 9.952V10.112C89.8458 10.8587 90.0484 11.4347 90.4538 11.84C90.8591 12.2347 91.3711 12.432 91.9898 12.432ZM98.0106 14V6.064H99.9946V6.96H100.283C100.4 6.64 100.592 6.40533 100.859 6.256C101.136 6.10667 101.456 6.032 101.819 6.032H102.779V7.824H101.787C101.275 7.824 100.853 7.96267 100.523 8.24C100.192 8.50667 100.027 8.92267 100.027 9.488V14H98.0106ZM104.354 14V6.064H106.338V6.928H106.626C106.765 6.66133 106.994 6.432 107.314 6.24C107.634 6.03733 108.056 5.936 108.578 5.936C109.144 5.936 109.597 6.048 109.938 6.272C110.28 6.48533 110.541 6.768 110.722 7.12H111.01C111.192 6.77867 111.448 6.496 111.778 6.272C112.109 6.048 112.578 5.936 113.186 5.936C113.677 5.936 114.12 6.04267 114.514 6.256C114.92 6.45867 115.24 6.77333 115.474 7.2C115.72 7.616 115.842 8.144 115.842 8.784V14H113.826V8.928C113.826 8.49067 113.714 8.16533 113.49 7.952C113.266 7.728 112.952 7.616 112.546 7.616C112.088 7.616 111.73 7.76533 111.474 8.064C111.229 8.352 111.106 8.768 111.106 9.312V14H109.09V8.928C109.09 8.49067 108.978 8.16533 108.754 7.952C108.53 7.728 108.216 7.616 107.81 7.616C107.352 7.616 106.994 7.76533 106.738 8.064C106.493 8.352 106.37 8.768 106.37 9.312V14H104.354ZM38.056 30V18.8H40.168V28.08H45.288V30H38.056ZM49.2559 30.224C48.6905 30.224 48.1839 30.128 47.7359 29.936C47.2879 29.7333 46.9305 29.4453 46.6639 29.072C46.4079 28.688 46.2799 28.224 46.2799 27.68C46.2799 27.136 46.4079 26.6827 46.6639 26.32C46.9305 25.9467 47.2932 25.6693 47.7519 25.488C48.2212 25.296 48.7545 25.2 49.3519 25.2H51.5279V24.752C51.5279 24.3787 51.4105 24.0747 51.1759 23.84C50.9412 23.5947 50.5679 23.472 50.0559 23.472C49.5545 23.472 49.1812 23.5893 48.9359 23.824C48.6905 24.048 48.5305 24.3413 48.4559 24.704L46.5999 24.08C46.7279 23.6747 46.9305 23.3067 47.2079 22.976C47.4959 22.6347 47.8745 22.3627 48.3439 22.16C48.8239 21.9467 49.4052 21.84 50.0879 21.84C51.1332 21.84 51.9599 22.1013 52.5679 22.624C53.1759 23.1467 53.4799 23.904 53.4799 24.896V27.856C53.4799 28.176 53.6292 28.336 53.9279 28.336H54.5679V30H53.2239C52.8292 30 52.5039 29.904 52.2479 29.712C51.9919 29.52 51.8639 29.264 51.8639 28.944V28.928H51.5599C51.5172 29.056 51.4212 29.2267 51.2719 29.44C51.1225 29.6427 50.8879 29.824 50.5679 29.984C50.2479 30.144 49.8105 30.224 49.2559 30.224ZM49.6079 28.592C50.1732 28.592 50.6319 28.4373 50.9839 28.128C51.3465 27.808 51.5279 27.3867 51.5279 26.864V26.704H49.4959C49.1225 26.704 48.8292 26.784 48.6159 26.944C48.4025 27.104 48.2959 27.328 48.2959 27.616C48.2959 27.904 48.4079 28.1387 48.6319 28.32C48.8559 28.5013 49.1812 28.592 49.6079 28.592ZM60.8099 30.224C60.0952 30.224 59.5459 30.1013 59.1619 29.856C58.7779 29.6107 58.4952 29.3387 58.3139 29.04H58.0259V30H56.0419V18.8H58.0579V22.976H58.3459C58.4632 22.784 58.6179 22.6027 58.8099 22.432C59.0125 22.2613 59.2739 22.1227 59.5939 22.016C59.9245 21.8987 60.3299 21.84 60.8099 21.84C61.4499 21.84 62.0419 22 62.5859 22.32C63.1299 22.6293 63.5672 23.088 63.8979 23.696C64.2285 24.304 64.3939 25.04 64.3939 25.904V26.16C64.3939 27.024 64.2285 27.76 63.8979 28.368C63.5672 28.976 63.1299 29.44 62.5859 29.76C62.0419 30.0693 61.4499 30.224 60.8099 30.224ZM60.2019 28.464C60.8205 28.464 61.3379 28.2667 61.7539 27.872C62.1699 27.4667 62.3779 26.88 62.3779 26.112V25.952C62.3779 25.184 62.1699 24.6027 61.7539 24.208C61.3485 23.8027 60.8312 23.6 60.2019 23.6C59.5832 23.6 59.0659 23.8027 58.6499 24.208C58.2339 24.6027 58.0259 25.184 58.0259 25.952V26.112C58.0259 26.88 58.2339 27.4667 58.6499 27.872C59.0659 28.2667 59.5832 28.464 60.2019 28.464ZM69.541 30.224C68.5063 30.224 67.6583 30 66.997 29.552C66.3357 29.104 65.9357 28.464 65.797 27.632L67.653 27.152C67.7277 27.5253 67.8503 27.8187 68.021 28.032C68.2023 28.2453 68.421 28.4 68.677 28.496C68.9437 28.5813 69.2317 28.624 69.541 28.624C70.0103 28.624 70.357 28.544 70.581 28.384C70.805 28.2133 70.917 28.0053 70.917 27.76C70.917 27.5147 70.8103 27.328 70.597 27.2C70.3837 27.0613 70.0423 26.9493 69.573 26.864L69.125 26.784C68.5703 26.6773 68.0637 26.5333 67.605 26.352C67.1463 26.16 66.7783 25.8987 66.501 25.568C66.2237 25.2373 66.085 24.8107 66.085 24.288C66.085 23.4987 66.373 22.896 66.949 22.48C67.525 22.0533 68.2823 21.84 69.221 21.84C70.1063 21.84 70.8423 22.0373 71.429 22.432C72.0157 22.8267 72.3997 23.344 72.581 23.984L70.709 24.56C70.6237 24.1547 70.4477 23.8667 70.181 23.696C69.925 23.5253 69.605 23.44 69.221 23.44C68.837 23.44 68.5437 23.5093 68.341 23.648C68.1383 23.776 68.037 23.9573 68.037 24.192C68.037 24.448 68.1437 24.64 68.357 24.768C68.5703 24.8853 68.8583 24.976 69.221 25.04L69.669 25.12C70.2663 25.2267 70.805 25.3707 71.285 25.552C71.7757 25.7227 72.1597 25.9733 72.437 26.304C72.725 26.624 72.869 27.0613 72.869 27.616C72.869 28.448 72.565 29.0933 71.957 29.552C71.3597 30 70.5543 30.224 69.541 30.224Z" fill="white"/>
</g>
<defs>
<clipPath id="clip0_268_28">
<rect width="117" height="32" fill="white"/>
</clipPath>
<clipPath id="clip1_268_28">
<rect width="29" height="30" fill="white" transform="translate(0 1)"/>
</clipPath>
</defs>
</svg>
