<svg width="310" height="200" viewBox="0 0 310 200" fill="none" xmlns="http://www.w3.org/2000/svg">
<path d="M28.3101 80.5567C22.8023 80.5567 17.9187 79.3829 13.6594 77.0351C9.39999 74.6874 6.05859 71.3859 3.63515 67.1306C1.21172 62.8753 0 57.9598 0 52.3839C0 46.7346 1.175 41.709 3.525 37.307C5.94843 32.905 9.25312 29.4934 13.439 27.0723C17.6984 24.5779 22.6922 23.3306 28.4203 23.3306C33.7812 23.3306 38.5179 24.5045 42.6304 26.8522C46.7429 29.2 49.9374 32.4281 52.214 36.5367C54.564 40.5718 55.739 45.0839 55.739 50.0728C55.739 50.8799 55.7023 51.7236 55.6288 52.604C55.6288 53.4844 55.5921 54.4015 55.5187 55.3552H13.9898C14.2836 59.6105 15.7523 62.9487 18.3961 65.3698C21.1133 67.7909 24.3812 69.0015 28.2 69.0015C31.064 69.0015 33.4507 68.3778 35.3601 67.1306C37.3429 65.81 38.8117 64.1226 39.7664 62.0683H54.0867C53.0585 65.5165 51.3328 68.6713 48.9093 71.5326C46.5593 74.3205 43.6218 76.5215 40.0968 78.1356C36.6453 79.7497 32.7164 80.5567 28.3101 80.5567ZM28.4203 34.7759C24.9687 34.7759 21.9211 35.7663 19.2773 37.7472C16.6336 39.6547 14.9445 42.5894 14.2101 46.5512H41.4187C41.1984 42.9562 39.8765 40.0949 37.4531 37.9673C35.0296 35.8397 32.0187 34.7759 28.4203 34.7759Z" fill="white"/>
<path d="M95.2472 80.5567C90.5472 80.5567 86.6917 79.8231 83.6808 78.3557C80.6699 76.815 78.43 74.7974 76.9613 72.303C75.4925 69.8085 74.7581 67.0572 74.7581 64.0492C74.7581 58.9869 76.741 54.8783 80.7066 51.7236C84.6722 48.5688 90.6206 46.9914 98.5519 46.9914H112.432V45.6708C112.432 41.9291 111.367 39.1779 109.237 37.4171C107.107 35.6563 104.464 34.7759 101.306 34.7759C98.4417 34.7759 95.9448 35.4728 93.8152 36.8668C91.6855 38.1874 90.3636 40.1683 89.8495 42.8095H76.08C76.4472 38.8477 77.7691 35.3995 80.0456 32.4648C82.3956 29.5301 85.4066 27.2924 89.0784 25.7517C92.7503 24.1377 96.8628 23.3306 101.416 23.3306C109.2 23.3306 115.332 25.2749 119.812 29.1633C124.292 33.0517 126.532 38.5542 126.532 45.6708V79.2361H114.525L113.203 70.4321C111.587 73.3668 109.31 75.7879 106.373 77.6954C103.509 79.603 99.8003 80.5567 95.2472 80.5567ZM98.4417 69.5517C102.481 69.5517 105.602 68.2311 107.805 65.5899C110.082 62.9487 111.514 59.6839 112.101 55.7954H100.094C96.3487 55.7954 93.6683 56.4924 92.0527 57.8864C90.437 59.207 89.6292 60.8577 89.6292 62.8386C89.6292 64.9663 90.437 66.617 92.0527 67.7909C93.6683 68.9648 95.798 69.5517 98.4417 69.5517Z" fill="white"/>
<path d="M148.799 79.2361V24.6512H161.357L162.679 34.8859C164.662 31.3643 167.342 28.5764 170.72 26.5221C174.172 24.3945 178.211 23.3306 182.838 23.3306V38.1874H178.872C175.788 38.1874 173.034 38.6643 170.61 39.6181C168.187 40.5718 166.278 42.2226 164.882 44.5703C163.56 46.9181 162.899 50.1829 162.899 54.3648V79.2361H148.799Z" fill="white"/>
<path d="M225.632 79.2361C219.903 79.2361 215.314 77.8421 211.862 75.0542C208.411 72.2663 206.685 67.314 206.685 60.1974V36.4266H197.321V24.6512H206.685L208.337 10.0146H220.785V24.6512H235.546V36.4266H220.785V60.3075C220.785 62.9487 221.335 64.7829 222.437 65.81C223.612 66.7638 225.595 67.2407 228.385 67.2407H235.215V79.2361H225.632Z" fill="white"/>
<path d="M256.464 79.2361V0H270.564V33.0151C272.4 30.007 274.86 27.6593 277.945 25.9718C281.102 24.211 284.701 23.3306 288.74 23.3306C295.496 23.3306 300.71 25.4583 304.382 29.7135C308.127 33.9688 310 40.205 310 48.4221V79.2361H296.01V49.7427C296.01 45.0472 295.055 41.4522 293.146 38.9578C291.31 36.4633 288.373 35.2161 284.334 35.2161C280.368 35.2161 277.063 36.61 274.42 39.398C271.849 42.1859 270.564 46.0743 270.564 51.0633V79.2361H256.464Z" fill="white"/>
<path d="M12.9531 194.465V147.694H4.69136V139.88H12.9531V130.416C12.9531 125.134 14.2749 121.282 16.9187 118.861C19.5624 116.44 23.4179 115.229 28.4851 115.229H33.9929V123.153H29.9171C27.1265 123.153 25.1437 123.74 23.9687 124.913C22.7937 126.014 22.2062 127.921 22.2062 130.636V139.88H35.6452V147.694H22.2062V194.465H12.9531Z" fill="white"/>
<path d="M164.451 194.465V139.88H172.823L173.594 150.335C175.283 146.74 177.854 143.879 181.305 141.751C184.757 139.623 189.016 138.56 194.083 138.56V148.244H191.55C188.318 148.244 185.344 148.831 182.627 150.005C179.91 151.105 177.743 153.013 176.128 155.727C174.512 158.442 173.704 162.184 173.704 166.953V194.465H164.451Z" fill="white"/>
<path d="M224.297 194.465V139.88H232.669L233.33 147.804C235.092 144.869 237.442 142.595 240.38 140.981C243.317 139.367 246.622 138.56 250.294 138.56C254.627 138.56 258.335 139.44 261.42 141.201C264.577 142.962 267.001 145.64 268.69 149.234C270.599 145.933 273.206 143.328 276.511 141.421C279.889 139.513 283.524 138.56 287.417 138.56C293.952 138.56 299.167 140.541 303.059 144.502C306.951 148.391 308.897 154.407 308.897 162.551V194.465H299.754V163.541C299.754 157.892 298.616 153.637 296.339 150.775C294.063 147.914 290.795 146.483 286.535 146.483C282.129 146.483 278.457 148.207 275.52 151.656C272.656 155.03 271.224 159.873 271.224 166.182V194.465H261.97V163.541C261.97 157.892 260.832 153.637 258.556 150.775C256.279 147.914 253.011 146.483 248.752 146.483C244.419 146.483 240.784 148.207 237.846 151.656C234.982 155.03 233.55 159.873 233.55 166.182V194.465H224.297Z" fill="white"/>
<path d="M99.5487 120.104C152.203 120.104 152.203 200 99.5487 200C47.0043 200 47.0043 120.104 99.5487 120.104ZM105.717 197.579C142.289 198.899 133.257 123.845 93.38 122.525C57.4691 121.204 64.5191 196.148 105.717 197.579Z" fill="white"/>
</svg>
