<svg width="87" height="56" viewBox="0 0 87 56" fill="none" xmlns="http://www.w3.org/2000/svg">
<path d="M7.92684 22.5559C6.38465 22.5559 5.01725 22.2272 3.82462 21.5698C2.632 20.9125 1.6964 19.988 1.01784 18.7966C0.339281 17.6051 0 16.2287 0 14.6675C0 13.0857 0.329 11.6785 0.986999 10.446C1.66556 9.2134 2.59087 8.25816 3.76293 7.58026C4.95556 6.8818 6.35381 6.53258 7.95768 6.53258C9.45874 6.53258 10.785 6.86126 11.9365 7.51863C13.088 8.17599 13.9825 9.07987 14.6199 10.2303C15.2779 11.3601 15.6069 12.6235 15.6069 14.0204C15.6069 14.2464 15.5966 14.4826 15.5761 14.7291C15.5761 14.9756 15.5658 15.2324 15.5452 15.4995H3.91715C3.9994 16.6909 4.41065 17.6256 5.1509 18.3035C5.91171 18.9815 6.82674 19.3204 7.89599 19.3204C8.69793 19.3204 9.36621 19.1458 9.90083 18.7966C10.456 18.4268 10.8673 17.9543 11.1346 17.3791H15.1443C14.8564 18.3446 14.3732 19.228 13.6946 20.0291C13.0366 20.8098 12.2141 21.426 11.2271 21.878C10.2607 22.3299 9.16058 22.5559 7.92684 22.5559ZM7.95768 9.73724C6.99124 9.73724 6.1379 10.0146 5.39765 10.5692C4.6574 11.1033 4.18446 11.925 3.97884 13.0343H11.5972C11.5356 12.0278 11.1654 11.2266 10.4869 10.6308C9.8083 10.0351 8.96524 9.73724 7.95768 9.73724Z" fill="#0E3EA4"/>
<path d="M26.6692 22.5559C25.3532 22.5559 24.2737 22.3505 23.4306 21.9396C22.5876 21.5082 21.9604 20.9433 21.5492 20.2448C21.1379 19.5464 20.9323 18.776 20.9323 17.9338C20.9323 16.5163 21.4875 15.3659 22.5978 14.4826C23.7082 13.5993 25.3738 13.1576 27.5945 13.1576H31.4808V12.7878C31.4808 11.7402 31.1827 10.9698 30.5864 10.4768C29.9901 9.98375 29.2498 9.73724 28.3656 9.73724C27.5637 9.73724 26.8646 9.93239 26.2682 10.3227C25.6719 10.6925 25.3018 11.2471 25.1579 11.9867H21.3024C21.4052 10.8774 21.7753 9.91185 22.4128 9.09014C23.0708 8.26844 23.9138 7.64188 24.942 7.21049C25.9701 6.75855 27.1216 6.53258 28.3965 6.53258C30.5761 6.53258 32.2931 7.07696 33.5474 8.16572C34.8017 9.25449 35.4288 10.7952 35.4288 12.7878V22.1861H32.0669L31.6967 19.721C31.2444 20.5427 30.6069 21.2206 29.7844 21.7547C28.9825 22.2888 27.9441 22.5559 26.6692 22.5559ZM27.5637 19.4745C28.6946 19.4745 29.5685 19.1047 30.1854 18.3652C30.8228 17.6256 31.2238 16.7115 31.3883 15.6227H28.0263C26.9776 15.6227 26.2271 15.8179 25.7747 16.2082C25.3224 16.578 25.0962 17.0402 25.0962 17.5948C25.0962 18.1906 25.3224 18.6528 25.7747 18.9815C26.2271 19.3101 26.8234 19.4745 27.5637 19.4745Z" fill="#0E3EA4"/>
<path d="M41.6638 22.1861V6.90235H45.18L45.5501 9.76805C46.1053 8.782 46.8559 8.00138 47.8017 7.42619C48.7682 6.83045 49.8991 6.53258 51.1945 6.53258V10.6925H50.0842C49.2205 10.6925 48.4495 10.826 47.7709 11.0931C47.0923 11.3601 46.5577 11.8223 46.167 12.4797C45.7969 13.1371 45.6118 14.0512 45.6118 15.2221V22.1861H41.6638Z" fill="#0E3EA4"/>
<path d="M63.1768 22.1861C61.573 22.1861 60.2878 21.7958 59.3214 21.0152C58.3549 20.2346 57.8717 18.8479 57.8717 16.8553V10.1994H55.25V6.90235H57.8717L58.3344 2.80408H61.8197V6.90235H65.9528V10.1994H61.8197V16.8861C61.8197 17.6256 61.9739 18.1392 62.2824 18.4268C62.6114 18.6939 63.1666 18.8274 63.9479 18.8274H65.8603V22.1861H63.1768Z" fill="#0E3EA4"/>
<path d="M71.81 22.1861V0H75.758V9.24421C76.272 8.40196 76.9609 7.7446 77.8245 7.27211C78.7087 6.77909 79.7162 6.53258 80.8472 6.53258C82.7389 6.53258 84.1989 7.12832 85.227 8.31979C86.2757 9.51127 86.8 11.2574 86.8 13.5582V22.1861H82.8829V13.9279C82.8829 12.6132 82.6155 11.6066 82.0809 10.9082C81.5669 10.2097 80.7444 9.8605 79.6134 9.8605C78.503 9.8605 77.5777 10.2508 76.8375 11.0314C76.1178 11.8121 75.758 12.9008 75.758 14.2977V22.1861H71.81Z" fill="#0E3EA4"/>
<path d="M3.62686 54.4502V41.3543H1.31358V39.1665H3.62686V36.5165C3.62686 35.0374 3.99698 33.9589 4.73723 33.281C5.47748 32.6031 6.55701 32.2641 7.97582 32.2641H9.51801V34.4827H8.37679C7.59542 34.4827 7.04023 34.6471 6.71123 34.9758C6.38223 35.2839 6.21773 35.818 6.21773 36.5781V39.1665H9.98066V41.3543H6.21773V54.4502H3.62686Z" fill="#0E3EA4"/>
<path d="M46.0464 54.4502V39.1665H48.3905L48.6064 42.0938C49.0793 41.0872 49.799 40.286 50.7655 39.6903C51.7319 39.0946 52.9245 38.7967 54.3433 38.7967V41.5083H53.6339C52.7292 41.5083 51.8964 41.6727 51.1356 42.0014C50.3748 42.3095 49.7682 42.8436 49.3158 43.6037C48.8634 44.3638 48.6372 45.4114 48.6372 46.7467V54.4502H46.0464Z" fill="#0E3EA4"/>
<path d="M62.8032 54.4502V39.1665H65.1473L65.3324 41.3851C65.8259 40.5634 66.4839 39.9265 67.3064 39.4746C68.1289 39.0227 69.0542 38.7967 70.0823 38.7967C71.2955 38.7967 72.3339 39.0432 73.1975 39.5362C74.0817 40.0293 74.7603 40.7791 75.2332 41.7857C75.7678 40.8612 76.4978 40.132 77.4231 39.5979C78.369 39.0638 79.3868 38.7967 80.4766 38.7967C82.3067 38.7967 83.7666 39.3514 84.8564 40.4607C85.9463 41.5494 86.4912 43.2339 86.4912 45.5142V54.4502H83.9311V45.7915C83.9311 44.2097 83.6124 43.0182 82.975 42.2171C82.3375 41.4159 81.4225 41.0153 80.2299 41.0153C78.9961 41.0153 77.968 41.4981 77.1455 42.4636C76.3436 43.4085 75.9426 44.7643 75.9426 46.531V54.4502H73.3517V45.7915C73.3517 44.2097 73.033 43.0182 72.3956 42.2171C71.7581 41.4159 70.8431 41.0153 69.6505 41.0153C68.4373 41.0153 67.4195 41.4981 66.597 42.4636C65.795 43.4085 65.3941 44.7643 65.3941 46.531V54.4502H62.8032Z" fill="#0E3EA4"/>
<path d="M27.8736 33.629C42.6169 33.629 42.6169 56 27.8736 56C13.1612 56 13.1612 33.629 27.8736 33.629ZM29.6009 55.3221C39.841 55.6919 37.3118 34.6767 26.1464 34.3069C16.0913 33.9371 18.0653 54.9215 29.6009 55.3221Z" fill="#0E3EA4"/>
</svg>
