<svg width="64" height="60" viewBox="0 0 64 60" fill="none" xmlns="http://www.w3.org/2000/svg">
  <g clip-path="url(#clip0_330_17)">
    <path
      d="M37.37 58.125C37.37 59.1604 36.5334 60 35.5015 60C34.4697 60 33.633 59.1604 33.633 58.125V54.3737C33.633 46.0905 26.9402 39.3746 18.685 39.3746C10.4282 39.3746 3.737 46.0891 3.737 54.3737V58.125C3.737 59.1604 2.90035 60 1.8685 60C0.836651 60 0 59.1604 0 58.125V54.3737C0 44.018 8.36405 35.6246 18.685 35.6246C29.0043 35.6246 37.37 44.0191 37.37 54.3737V58.125ZM34.5552 34.1173C33.8066 34.8301 32.6237 34.7991 31.9135 34.0478C31.2032 33.2966 31.234 32.11 31.9827 31.3973C35.4302 28.1143 39.9935 26.2502 44.8444 26.2502C55.1633 26.2502 63.5294 34.6443 63.5294 44.9961V48.7499C63.5294 49.7853 62.6928 50.6249 61.6609 50.6249C60.6291 50.6249 59.7924 49.7853 59.7924 48.7499V44.9961C59.7924 36.7146 53.0995 30.0003 44.8444 30.0003C40.9606 30.0003 37.3153 31.4894 34.5556 34.1174L34.5552 34.1173ZM18.6847 30.0002C13.0091 30.0002 8.40794 25.383 8.40794 19.6876C8.40794 13.9923 13.0091 9.37507 18.6847 9.37507C24.3602 9.37507 28.9615 13.9923 28.9615 19.6876C28.9615 25.383 24.3602 30.0002 18.6847 30.0002ZM18.6847 26.2502C22.2966 26.2502 25.2244 23.3121 25.2244 19.6876C25.2244 16.0632 22.2966 13.1251 18.6847 13.1251C15.0728 13.1251 12.1449 16.0632 12.1449 19.6876C12.1449 23.3121 15.0728 26.2502 18.6847 26.2502ZM44.8437 20.6251C39.1682 20.6251 34.567 16.0079 34.567 10.3126C34.567 4.61725 39.1682 0 44.8437 0C50.5193 0 55.1205 4.61725 55.1205 10.3126C55.1205 16.0079 50.5193 20.6251 44.8437 20.6251ZM44.8437 16.8751C48.4556 16.8751 51.3835 13.937 51.3835 10.3126C51.3835 6.68812 48.4556 3.75003 44.8437 3.75003C41.2318 3.75003 38.304 6.68812 38.304 10.3126C38.304 13.937 41.2318 16.8751 44.8437 16.8751Z"
      fill="white" />
  </g>
  <defs>
    <clipPath id="clip0_330_17">
      <rect width="63.5294" height="60" fill="white" />
    </clipPath>
  </defs>
</svg>
  